<svg version="1.1" viewBox="0.0 0.0 600.0 371.0" fill="none" stroke="none" stroke-linecap="square" stroke-miterlimit="10" width="600" height="371" xmlns:xlink="http://www.w3.org/1999/xlink" xmlns="http://www.w3.org/2000/svg"><path fill="#ffffff" d="M0 0L600.0 0L600.0 371.0L0 371.0L0 0Z" fill-rule="nonzero"/><path fill="#ffffff" d="M0 0L600.0 0L600.0 371.0L0 371.0L0 0Z" fill-rule="nonzero"/><path stroke="#333333" stroke-width="1.0" stroke-linecap="butt" d="M45.5 331.5L581.5 331.5" fill-rule="nonzero"/><path stroke="#cccccc" stroke-width="1.0" stroke-linecap="butt" d="M45.5 271.5L581.5 271.5" fill-rule="nonzero"/><path stroke="#cccccc" stroke-width="1.0" stroke-linecap="butt" d="M45.5 210.5L581.5 210.5" fill-rule="nonzero"/><path stroke="#cccccc" stroke-width="1.0" stroke-linecap="butt" d="M45.5 150.5L581.5 150.5" fill-rule="nonzero"/><path stroke="#cccccc" stroke-width="1.0" stroke-linecap="butt" d="M45.5 89.5L581.5 89.5" fill-rule="nonzero"/><clipPath id="id_0"><path d="M45.55 89.78333L581.45 89.78333L581.45 331.45L45.55 331.45L45.55 89.78333Z" clip-rule="nonzero"/></clipPath><path stroke="#000000" stroke-width="0.0" stroke-linecap="butt" stroke-opacity="0.0" clip-path="url(#id_0)" d="M169.0 331.0L89.0 331.0L89.0 259.0L169.0 259.0Z" fill-rule="nonzero"/><path fill="#4285f4" clip-path="url(#id_0)" d="M169.0 331.0L89.0 331.0L89.0 259.0L169.0 259.0Z" fill-rule="nonzero"/><path stroke="#000000" stroke-width="0.0" stroke-linecap="butt" stroke-opacity="0.0" clip-path="url(#id_0)" d="M292.0 331.0L212.0 331.0L212.0 268.0L292.0 268.0Z" fill-rule="nonzero"/><path fill="#4285f4" clip-path="url(#id_0)" d="M292.0 331.0L212.0 331.0L212.0 268.0L292.0 268.0Z" fill-rule="nonzero"/><path stroke="#000000" stroke-width="0.0" stroke-linecap="butt" stroke-opacity="0.0" clip-path="url(#id_0)" d="M415.0 331.0L335.0 331.0L335.0 316.0L415.0 316.0Z" fill-rule="nonzero"/><path fill="#4285f4" clip-path="url(#id_0)" d="M415.0 331.0L335.0 331.0L335.0 316.0L415.0 316.0Z" fill-rule="nonzero"/><path stroke="#000000" stroke-width="0.0" stroke-linecap="butt" stroke-opacity="0.0" clip-path="url(#id_0)" d="M538.0 331.0L458.0 331.0L458.0 256.0L538.0 256.0Z" fill-rule="nonzero"/><path fill="#4285f4" clip-path="url(#id_0)" d="M538.0 331.0L458.0 331.0L458.0 256.0L538.0 256.0Z" fill-rule="nonzero"/><path stroke="#000000" stroke-width="0.0" stroke-linecap="butt" stroke-opacity="0.0" clip-path="url(#id_0)" d="M169.0 259.0L89.0 259.0L89.0 243.0C89.0 241.89543 89.89543 241.0 91.0 241.0L167.0 241.0C168.10457 241.0 169.0 241.89543 169.0 243.0Z" fill-rule="nonzero"/><path fill="#db4437" clip-path="url(#id_0)" d="M169.0 259.0L89.0 259.0L89.0 243.0C89.0 241.89543 89.89543 241.0 91.0 241.0L167.0 241.0C168.10457 241.0 169.0 241.89543 169.0 243.0Z" fill-rule="nonzero"/><path stroke="#000000" stroke-width="0.0" stroke-linecap="butt" stroke-opacity="0.0" clip-path="url(#id_0)" d="M292.0 268.0L212.0 268.0L212.0 225.0C212.0 223.89543 212.89543 223.0 214.0 223.0L290.0 223.0C291.10458 223.0 292.0 223.89543 292.0 225.0Z" fill-rule="nonzero"/><path fill="#db4437" clip-path="url(#id_0)" d="M292.0 268.0L212.0 268.0L212.0 225.0C212.0 223.89543 212.89543 223.0 214.0 223.0L290.0 223.0C291.10458 223.0 292.0 223.89543 292.0 225.0Z" fill-rule="nonzero"/><path stroke="#000000" stroke-width="0.0" stroke-linecap="butt" stroke-opacity="0.0" clip-path="url(#id_0)" d="M415.0 316.0L335.0 316.0L335.0 273.0C335.0 271.89542 335.89542 271.0 337.0 271.0L413.0 271.0C414.10458 271.0 415.0 271.89542 415.0 273.0Z" fill-rule="nonzero"/><path fill="#db4437" clip-path="url(#id_0)" d="M415.0 316.0L335.0 316.0L335.0 273.0C335.0 271.89542 335.89542 271.0 337.0 271.0L413.0 271.0C414.10458 271.0 415.0 271.89542 415.0 273.0Z" fill-rule="nonzero"/><path stroke="#000000" stroke-width="0.0" stroke-linecap="butt" stroke-opacity="0.0" clip-path="url(#id_0)" d="M538.0 256.0L458.0 256.0L458.0 128.0C458.0 126.89543 458.89542 126.0 460.0 126.0L536.0 126.0C537.10455 126.0 538.0 126.89543 538.0 128.0Z" fill-rule="nonzero"/><path fill="#db4437" clip-path="url(#id_0)" d="M538.0 256.0L458.0 256.0L458.0 128.0C458.0 126.89543 458.89542 126.0 460.0 126.0L536.0 126.0C537.10455 126.0 538.0 126.89543 538.0 128.0Z" fill-rule="nonzero"/><path stroke="#4285f4" stroke-width="3.0" stroke-linejoin="round" stroke-linecap="round" d="M128.29688 275.75L122.703125 275.75L122.703125 274.96875L125.65625 271.6875Q126.3125 270.9375 126.5625 270.48438Q126.8125 270.01562 126.8125 269.51562Q126.8125 268.84375 126.40625 268.42188Q126.015625 267.98438 125.328125 267.98438Q124.53125 267.98438 124.078125 268.45312Q123.625 268.90625 123.625 269.73438L122.546875 269.73438Q122.546875 268.54688 123.296875 267.82812Q124.0625 267.09375 125.328125 267.09375Q126.53125 267.09375 127.21875 267.71875Q127.90625 268.34375 127.90625 269.39062Q127.90625 270.64062 126.296875 272.39062L124.015625 274.85938L128.29688 274.85938L128.29688 275.75ZM134.28125 272.89062L135.46875 272.89062L135.46875 273.76562L134.28125 273.76562L134.28125 275.75L133.20312 275.75L133.20312 273.76562L129.3125 273.76562L129.3125 273.125L133.125 267.21875L134.28125 267.21875L134.28125 272.89062ZM130.54688 272.89062L133.20312 272.89062L133.20312 268.70312L133.0625 268.9375L130.54688 272.89062Z" fill-rule="nonzero"/><path fill="#ffffff" d="M128.29688 275.75L122.703125 275.75L122.703125 274.96875L125.65625 271.6875Q126.3125 270.9375 126.5625 270.48438Q126.8125 270.01562 126.8125 269.51562Q126.8125 268.84375 126.40625 268.42188Q126.015625 267.98438 125.328125 267.98438Q124.53125 267.98438 124.078125 268.45312Q123.625 268.90625 123.625 269.73438L122.546875 269.73438Q122.546875 268.54688 123.296875 267.82812Q124.0625 267.09375 125.328125 267.09375Q126.53125 267.09375 127.21875 267.71875Q127.90625 268.34375 127.90625 269.39062Q127.90625 270.64062 126.296875 272.39062L124.015625 274.85938L128.29688 274.85938L128.29688 275.75ZM134.28125 272.89062L135.46875 272.89062L135.46875 273.76562L134.28125 273.76562L134.28125 275.75L133.20312 275.75L133.20312 273.76562L129.3125 273.76562L129.3125 273.125L133.125 267.21875L134.28125 267.21875L134.28125 272.89062ZM130.54688 272.89062L133.20312 272.89062L133.20312 268.70312L133.0625 268.9375L130.54688 272.89062Z" fill-rule="nonzero"/><path stroke="#4285f4" stroke-width="3.0" stroke-linejoin="round" stroke-linecap="round" d="M251.29688 284.8125L245.70312 284.8125L245.70312 284.03125L248.65625 280.75Q249.3125 280.0 249.5625 279.54688Q249.8125 279.07812 249.8125 278.57812Q249.8125 277.90625 249.40625 277.48438Q249.01562 277.04688 248.32812 277.04688Q247.53125 277.04688 247.07812 277.51562Q246.625 277.96875 246.625 278.79688L245.54688 278.79688Q245.54688 277.60938 246.29688 276.89062Q247.0625 276.15625 248.32812 276.15625Q249.53125 276.15625 250.21875 276.78125Q250.90625 277.40625 250.90625 278.45312Q250.90625 279.70312 249.29688 281.45312L247.01562 283.92188L251.29688 283.92188L251.29688 284.8125ZM256.26562 284.8125L255.1875 284.8125L255.1875 277.59375L253.0 278.39062L253.0 277.40625L256.10938 276.23438L256.26562 276.23438L256.26562 284.8125Z" fill-rule="nonzero"/><path fill="#ffffff" d="M251.29688 284.8125L245.70312 284.8125L245.70312 284.03125L248.65625 280.75Q249.3125 280.0 249.5625 279.54688Q249.8125 279.07812 249.8125 278.57812Q249.8125 277.90625 249.40625 277.48438Q249.01562 277.04688 248.32812 277.04688Q247.53125 277.04688 247.07812 277.51562Q246.625 277.96875 246.625 278.79688L245.54688 278.79688Q245.54688 277.60938 246.29688 276.89062Q247.0625 276.15625 248.32812 276.15625Q249.53125 276.15625 250.21875 276.78125Q250.90625 277.40625 250.90625 278.45312Q250.90625 279.70312 249.29688 281.45312L247.01562 283.92188L251.29688 283.92188L251.29688 284.8125ZM256.26562 284.8125L255.1875 284.8125L255.1875 277.59375L253.0 278.39062L253.0 277.40625L256.10938 276.23438L256.26562 276.23438L256.26562 284.8125Z" fill-rule="nonzero"/><path stroke="#ffffff" stroke-width="3.0" stroke-linejoin="round" stroke-linecap="round" d="M372.70312 297.06458L373.14062 292.81458L377.51562 292.81458L377.51562 293.81458L374.0625 293.81458L373.79688 296.1427Q374.4375 295.7677 375.23438 295.7677Q376.39062 295.7677 377.07812 296.54895Q377.76562 297.31458 377.76562 298.62708Q377.76562 299.93958 377.04688 300.7052Q376.34375 301.47083 375.0625 301.47083Q373.9375 301.47083 373.21875 300.84583Q372.5 300.2052 372.40625 299.09583L373.42188 299.09583Q373.53125 299.8302 373.95312 300.2052Q374.375 300.5802 375.0625 300.5802Q375.8125 300.5802 376.25 300.06458Q376.6875 299.54895 376.6875 298.6427Q376.6875 297.78333 376.21875 297.2677Q375.75 296.75208 374.96875 296.75208Q374.26562 296.75208 373.85938 297.04895L373.57812 297.28333L372.70312 297.06458Z" fill-rule="nonzero"/><path fill="#4285f4" d="M372.70312 297.06458L373.14062 292.81458L377.51562 292.81458L377.51562 293.81458L374.0625 293.81458L373.79688 296.1427Q374.4375 295.7677 375.23438 295.7677Q376.39062 295.7677 377.07812 296.54895Q377.76562 297.31458 377.76562 298.62708Q377.76562 299.93958 377.04688 300.7052Q376.34375 301.47083 375.0625 301.47083Q373.9375 301.47083 373.21875 300.84583Q372.5 300.2052 372.40625 299.09583L373.42188 299.09583Q373.53125 299.8302 373.95312 300.2052Q374.375 300.5802 375.0625 300.5802Q375.8125 300.5802 376.25 300.06458Q376.6875 299.54895 376.6875 298.6427Q376.6875 297.78333 376.21875 297.2677Q375.75 296.75208 374.96875 296.75208Q374.26562 296.75208 373.85938 297.04895L373.57812 297.28333L372.70312 297.06458Z" fill-rule="nonzero"/><path stroke="#4285f4" stroke-width="3.0" stroke-linejoin="round" stroke-linecap="round" d="M497.29688 272.72916L491.70312 272.72916L491.70312 271.9479L494.65625 268.66666Q495.3125 267.91666 495.5625 267.46353Q495.8125 266.99478 495.8125 266.49478Q495.8125 265.8229 495.40625 265.40103Q495.01562 264.96353 494.32812 264.96353Q493.53125 264.96353 493.07812 265.43228Q492.625 265.8854 492.625 266.71353L491.54688 266.71353Q491.54688 265.52603 492.29688 264.80728Q493.0625 264.0729 494.32812 264.0729Q495.53125 264.0729 496.21875 264.6979Q496.90625 265.3229 496.90625 266.36978Q496.90625 267.61978 495.29688 269.36978L493.01562 271.83853L497.29688 271.83853L497.29688 272.72916ZM499.20312 268.4479L499.64062 264.1979L504.01562 264.1979L504.01562 265.1979L500.5625 265.1979L500.29688 267.52603Q500.9375 267.15103 501.73438 267.15103Q502.89062 267.15103 503.57812 267.93228Q504.26562 268.6979 504.26562 270.0104Q504.26562 271.3229 503.54688 272.08853Q502.84375 272.85416 501.5625 272.85416Q500.4375 272.85416 499.71875 272.22916Q499.0 271.58853 498.90625 270.47916L499.92188 270.47916Q500.03125 271.21353 500.45312 271.58853Q500.875 271.96353 501.5625 271.96353Q502.3125 271.96353 502.75 271.4479Q503.1875 270.93228 503.1875 270.02603Q503.1875 269.16666 502.71875 268.65103Q502.25 268.1354 501.46875 268.1354Q500.76562 268.1354 500.35938 268.43228L500.07812 268.66666L499.20312 268.4479Z" fill-rule="nonzero"/><path fill="#ffffff" d="M497.29688 272.72916L491.70312 272.72916L491.70312 271.9479L494.65625 268.66666Q495.3125 267.91666 495.5625 267.46353Q495.8125 266.99478 495.8125 266.49478Q495.8125 265.8229 495.40625 265.40103Q495.01562 264.96353 494.32812 264.96353Q493.53125 264.96353 493.07812 265.43228Q492.625 265.8854 492.625 266.71353L491.54688 266.71353Q491.54688 265.52603 492.29688 264.80728Q493.0625 264.0729 494.32812 264.0729Q495.53125 264.0729 496.21875 264.6979Q496.90625 265.3229 496.90625 266.36978Q496.90625 267.61978 495.29688 269.36978L493.01562 271.83853L497.29688 271.83853L497.29688 272.72916ZM499.20312 268.4479L499.64062 264.1979L504.01562 264.1979L504.01562 265.1979L500.5625 265.1979L500.29688 267.52603Q500.9375 267.15103 501.73438 267.15103Q502.89062 267.15103 503.57812 267.93228Q504.26562 268.6979 504.26562 270.0104Q504.26562 271.3229 503.54688 272.08853Q502.84375 272.85416 501.5625 272.85416Q500.4375 272.85416 499.71875 272.22916Q499.0 271.58853 498.90625 270.47916L499.92188 270.47916Q500.03125 271.21353 500.45312 271.58853Q500.875 271.96353 501.5625 271.96353Q502.3125 271.96353 502.75 271.4479Q503.1875 270.93228 503.1875 270.02603Q503.1875 269.16666 502.71875 268.65103Q502.25 268.1354 501.46875 268.1354Q500.76562 268.1354 500.35938 268.43228L500.07812 268.66666L499.20312 268.4479Z" fill-rule="nonzero"/><path stroke="#db4437" stroke-width="3.0" stroke-linejoin="round" stroke-linecap="round" d="M130.46875 245.85625L130.46875 246.7625L130.26562 246.7625Q129.0 246.79375 128.25 247.52812Q127.5 248.24687 127.375 249.55937Q128.0625 248.79375 129.21875 248.79375Q130.32812 248.79375 131.0 249.575Q131.67188 250.35625 131.67188 251.60625Q131.67188 252.91875 130.95312 253.71562Q130.23438 254.5125 129.01562 254.5125Q127.796875 254.5125 127.03125 253.575Q126.28125 252.62187 126.28125 251.1375L126.28125 250.73125Q126.28125 248.37187 127.28125 247.12187Q128.28125 245.87187 130.26562 245.85625L130.46875 245.85625ZM129.04688 249.7Q128.48438 249.7 128.01562 250.02812Q127.546875 250.35625 127.359375 250.87187L127.359375 251.2625Q127.359375 252.325 127.828125 252.96562Q128.3125 253.60625 129.01562 253.60625Q129.75 253.60625 130.17188 253.075Q130.59375 252.52812 130.59375 251.65312Q130.59375 250.77812 130.17188 250.24687Q129.75 249.7 129.04688 249.7Z" fill-rule="nonzero"/><path fill="#ffffff" d="M130.46875 245.85625L130.46875 246.7625L130.26562 246.7625Q129.0 246.79375 128.25 247.52812Q127.5 248.24687 127.375 249.55937Q128.0625 248.79375 129.21875 248.79375Q130.32812 248.79375 131.0 249.575Q131.67188 250.35625 131.67188 251.60625Q131.67188 252.91875 130.95312 253.71562Q130.23438 254.5125 129.01562 254.5125Q127.796875 254.5125 127.03125 253.575Q126.28125 252.62187 126.28125 251.1375L126.28125 250.73125Q126.28125 248.37187 127.28125 247.12187Q128.28125 245.87187 130.26562 245.85625L130.46875 245.85625ZM129.04688 249.7Q128.48438 249.7 128.01562 250.02812Q127.546875 250.35625 127.359375 250.87187L127.359375 251.2625Q127.359375 252.325 127.828125 252.96562Q128.3125 253.60625 129.01562 253.60625Q129.75 253.60625 130.17188 253.075Q130.59375 252.52812 130.59375 251.65312Q130.59375 250.77812 130.17188 250.24687Q129.75 249.7 129.04688 249.7Z" fill-rule="nonzero"/><path stroke="#db4437" stroke-width="3.0" stroke-linejoin="round" stroke-linecap="round" d="M249.26562 239.5L248.1875 239.5L248.1875 232.28125L246.0 233.07812L246.0 232.09375L249.10938 230.92188L249.26562 230.92188L249.26562 239.5ZM253.20312 235.21875L253.64062 230.96875L258.01562 230.96875L258.01562 231.96875L254.5625 231.96875L254.29688 234.29688Q254.9375 233.92188 255.73438 233.92188Q256.89062 233.92188 257.57812 234.70312Q258.26562 235.46875 258.26562 236.78125Q258.26562 238.09375 257.54688 238.85938Q256.84375 239.625 255.5625 239.625Q254.4375 239.625 253.71875 239.0Q253.0 238.35938 252.90625 237.25L253.92188 237.25Q254.03125 237.98438 254.45312 238.35938Q254.875 238.73438 255.5625 238.73438Q256.3125 238.73438 256.75 238.21875Q257.1875 237.70312 257.1875 236.79688Q257.1875 235.9375 256.71875 235.42188Q256.25 234.90625 255.46875 234.90625Q254.76562 234.90625 254.35938 235.20312L254.07812 235.4375L253.20312 235.21875Z" fill-rule="nonzero"/><path fill="#ffffff" d="M249.26562 239.5L248.1875 239.5L248.1875 232.28125L246.0 233.07812L246.0 232.09375L249.10938 230.92188L249.26562 230.92188L249.26562 239.5ZM253.20312 235.21875L253.64062 230.96875L258.01562 230.96875L258.01562 231.96875L254.5625 231.96875L254.29688 234.29688Q254.9375 233.92188 255.73438 233.92188Q256.89062 233.92188 257.57812 234.70312Q258.26562 235.46875 258.26562 236.78125Q258.26562 238.09375 257.54688 238.85938Q256.84375 239.625 255.5625 239.625Q254.4375 239.625 253.71875 239.0Q253.0 238.35938 252.90625 237.25L253.92188 237.25Q254.03125 237.98438 254.45312 238.35938Q254.875 238.73438 255.5625 238.73438Q256.3125 238.73438 256.75 238.21875Q257.1875 237.70312 257.1875 236.79688Q257.1875 235.9375 256.71875 235.42188Q256.25 234.90625 255.46875 234.90625Q254.76562 234.90625 254.35938 235.20312L254.07812 235.4375L253.20312 235.21875Z" fill-rule="nonzero"/><path stroke="#ffffff" stroke-width="3.0" stroke-linejoin="round" stroke-linecap="round" d="M372.26562 281.54584L371.1875 281.54584L371.1875 274.3271L369.0 275.12396L369.0 274.1396L372.10938 272.9677L372.26562 272.9677L372.26562 281.54584ZM376.20312 277.2646L376.64062 273.0146L381.01562 273.0146L381.01562 274.0146L377.5625 274.0146L377.29688 276.3427Q377.9375 275.9677 378.73438 275.9677Q379.89062 275.9677 380.57812 276.74896Q381.26562 277.5146 381.26562 278.8271Q381.26562 280.1396 380.54688 280.9052Q379.84375 281.67084 378.5625 281.67084Q377.4375 281.67084 376.71875 281.04584Q376.0 280.4052 375.90625 279.29584L376.92188 279.29584Q377.03125 280.0302 377.45312 280.4052Q377.875 280.7802 378.5625 280.7802Q379.3125 280.7802 379.75 280.2646Q380.1875 279.74896 380.1875 278.8427Q380.1875 277.98334 379.71875 277.4677Q379.25 276.9521 378.46875 276.9521Q377.76562 276.9521 377.35938 277.24896L377.07812 277.48334L376.20312 277.2646Z" fill-rule="nonzero"/><path fill="#db4437" d="M372.26562 281.54584L371.1875 281.54584L371.1875 274.3271L369.0 275.12396L369.0 274.1396L372.10938 272.9677L372.26562 272.9677L372.26562 281.54584ZM376.20312 277.2646L376.64062 273.0146L381.01562 273.0146L381.01562 274.0146L377.5625 274.0146L377.29688 276.3427Q377.9375 275.9677 378.73438 275.9677Q379.89062 275.9677 380.57812 276.74896Q381.26562 277.5146 381.26562 278.8271Q381.26562 280.1396 380.54688 280.9052Q379.84375 281.67084 378.5625 281.67084Q377.4375 281.67084 376.71875 281.04584Q376.0 280.4052 375.90625 279.29584L376.92188 279.29584Q377.03125 280.0302 377.45312 280.4052Q377.875 280.7802 378.5625 280.7802Q379.3125 280.7802 379.75 280.2646Q380.1875 279.74896 380.1875 278.8427Q380.1875 277.98334 379.71875 277.4677Q379.25 276.9521 378.46875 276.9521Q377.76562 276.9521 377.35938 277.24896L377.07812 277.48334L376.20312 277.2646Z" fill-rule="nonzero"/><path stroke="#db4437" stroke-width="3.0" stroke-linejoin="round" stroke-linecap="round" d="M496.28125 139.97395L497.46875 139.97395L497.46875 140.84895L496.28125 140.84895L496.28125 142.83333L495.20312 142.83333L495.20312 140.84895L491.3125 140.84895L491.3125 140.20833L495.125 134.30208L496.28125 134.30208L496.28125 139.97395ZM492.54688 139.97395L495.20312 139.97395L495.20312 135.78645L495.0625 136.02083L492.54688 139.97395ZM500.28125 138.03645L501.09375 138.03645Q501.875 138.02083 502.3125 137.6302Q502.75 137.23958 502.75 136.5677Q502.75 135.0677 501.25 135.0677Q500.54688 135.0677 500.125 135.47395Q499.71875 135.8802 499.71875 136.53645L498.625 136.53645Q498.625 135.52083 499.35938 134.84895Q500.10938 134.17708 501.25 134.17708Q502.45312 134.17708 503.14062 134.8177Q503.82812 135.45833 503.82812 136.59895Q503.82812 137.16145 503.46875 137.67708Q503.10938 138.1927 502.48438 138.45833Q503.1875 138.67708 503.5625 139.1927Q503.95312 139.70833 503.95312 140.45833Q503.95312 141.59895 503.20312 142.28645Q502.45312 142.95833 501.25 142.95833Q500.0625 142.95833 499.29688 142.30208Q498.54688 141.64583 498.54688 140.58333L499.64062 140.58333Q499.64062 141.2552 500.07812 141.66145Q500.51562 142.0677 501.26562 142.0677Q502.04688 142.0677 502.45312 141.66145Q502.875 141.23958 502.875 140.47395Q502.875 139.73958 502.42188 139.34895Q501.96875 138.9427 501.09375 138.92708L500.28125 138.92708L500.28125 138.03645Z" fill-rule="nonzero"/><path fill="#ffffff" d="M496.28125 139.97395L497.46875 139.97395L497.46875 140.84895L496.28125 140.84895L496.28125 142.83333L495.20312 142.83333L495.20312 140.84895L491.3125 140.84895L491.3125 140.20833L495.125 134.30208L496.28125 134.30208L496.28125 139.97395ZM492.54688 139.97395L495.20312 139.97395L495.20312 135.78645L495.0625 136.02083L492.54688 139.97395ZM500.28125 138.03645L501.09375 138.03645Q501.875 138.02083 502.3125 137.6302Q502.75 137.23958 502.75 136.5677Q502.75 135.0677 501.25 135.0677Q500.54688 135.0677 500.125 135.47395Q499.71875 135.8802 499.71875 136.53645L498.625 136.53645Q498.625 135.52083 499.35938 134.84895Q500.10938 134.17708 501.25 134.17708Q502.45312 134.17708 503.14062 134.8177Q503.82812 135.45833 503.82812 136.59895Q503.82812 137.16145 503.46875 137.67708Q503.10938 138.1927 502.48438 138.45833Q503.1875 138.67708 503.5625 139.1927Q503.95312 139.70833 503.95312 140.45833Q503.95312 141.59895 503.20312 142.28645Q502.45312 142.95833 501.25 142.95833Q500.0625 142.95833 499.29688 142.30208Q498.54688 141.64583 498.54688 140.58333L499.64062 140.58333Q499.64062 141.2552 500.07812 141.66145Q500.51562 142.0677 501.26562 142.0677Q502.04688 142.0677 502.45312 141.66145Q502.875 141.23958 502.875 140.47395Q502.875 139.73958 502.42188 139.34895Q501.96875 138.9427 501.09375 138.92708L500.28125 138.92708L500.28125 138.03645Z" fill-rule="nonzero"/><path stroke="#ffffff" stroke-width="3.0" stroke-linejoin="round" stroke-linecap="round" d="M124.28125 221.02812L125.09375 221.02812Q125.875 221.0125 126.3125 220.62187Q126.75 220.23125 126.75 219.55937Q126.75 218.05937 125.25 218.05937Q124.546875 218.05937 124.125 218.46562Q123.71875 218.87187 123.71875 219.52812L122.625 219.52812Q122.625 218.5125 123.359375 217.84062Q124.109375 217.16875 125.25 217.16875Q126.453125 217.16875 127.140625 217.80937Q127.828125 218.45 127.828125 219.59062Q127.828125 220.15312 127.46875 220.66875Q127.109375 221.18437 126.484375 221.45Q127.1875 221.66875 127.5625 222.18437Q127.953125 222.7 127.953125 223.45Q127.953125 224.59062 127.203125 225.27812Q126.453125 225.95 125.25 225.95Q124.0625 225.95 123.296875 225.29375Q122.546875 224.6375 122.546875 223.575L123.640625 223.575Q123.640625 224.24687 124.078125 224.65312Q124.515625 225.05937 125.265625 225.05937Q126.046875 225.05937 126.453125 224.65312Q126.875 224.23125 126.875 223.46562Q126.875 222.73125 126.421875 222.34062Q125.96875 221.93437 125.09375 221.91875L124.28125 221.91875L124.28125 221.02812ZM135.0625 222.18437Q135.0625 224.09062 134.40625 225.02812Q133.76562 225.95 132.375 225.95Q131.01562 225.95 130.35938 225.04375Q129.70312 224.1375 129.67188 222.325L129.67188 220.8875Q129.67188 218.99687 130.3125 218.09062Q130.96875 217.16875 132.35938 217.16875Q133.73438 217.16875 134.39062 218.05937Q135.04688 218.93437 135.0625 220.77812L135.0625 222.18437ZM133.96875 220.7Q133.96875 219.325 133.57812 218.7Q133.20312 218.05937 132.35938 218.05937Q131.53125 218.05937 131.14062 218.7Q130.76562 219.325 130.76562 220.62187L130.76562 222.35625Q130.76562 223.73125 131.15625 224.40312Q131.5625 225.05937 132.375 225.05937Q133.17188 225.05937 133.5625 224.43437Q133.95312 223.80937 133.96875 222.48125L133.96875 220.7Z" fill-rule="nonzero"/><path fill="#424242" d="M124.28125 221.02812L125.09375 221.02812Q125.875 221.0125 126.3125 220.62187Q126.75 220.23125 126.75 219.55937Q126.75 218.05937 125.25 218.05937Q124.546875 218.05937 124.125 218.46562Q123.71875 218.87187 123.71875 219.52812L122.625 219.52812Q122.625 218.5125 123.359375 217.84062Q124.109375 217.16875 125.25 217.16875Q126.453125 217.16875 127.140625 217.80937Q127.828125 218.45 127.828125 219.59062Q127.828125 220.15312 127.46875 220.66875Q127.109375 221.18437 126.484375 221.45Q127.1875 221.66875 127.5625 222.18437Q127.953125 222.7 127.953125 223.45Q127.953125 224.59062 127.203125 225.27812Q126.453125 225.95 125.25 225.95Q124.0625 225.95 123.296875 225.29375Q122.546875 224.6375 122.546875 223.575L123.640625 223.575Q123.640625 224.24687 124.078125 224.65312Q124.515625 225.05937 125.265625 225.05937Q126.046875 225.05937 126.453125 224.65312Q126.875 224.23125 126.875 223.46562Q126.875 222.73125 126.421875 222.34062Q125.96875 221.93437 125.09375 221.91875L124.28125 221.91875L124.28125 221.02812ZM135.0625 222.18437Q135.0625 224.09062 134.40625 225.02812Q133.76562 225.95 132.375 225.95Q131.01562 225.95 130.35938 225.04375Q129.70312 224.1375 129.67188 222.325L129.67188 220.8875Q129.67188 218.99687 130.3125 218.09062Q130.96875 217.16875 132.35938 217.16875Q133.73438 217.16875 134.39062 218.05937Q135.04688 218.93437 135.0625 220.77812L135.0625 222.18437ZM133.96875 220.7Q133.96875 219.325 133.57812 218.7Q133.20312 218.05937 132.35938 218.05937Q131.53125 218.05937 131.14062 218.7Q130.76562 219.325 130.76562 220.62187L130.76562 222.35625Q130.76562 223.73125 131.15625 224.40312Q131.5625 225.05937 132.375 225.05937Q133.17188 225.05937 133.5625 224.43437Q133.95312 223.80937 133.96875 222.48125L133.96875 220.7Z" fill-rule="nonzero"/><path stroke="#ffffff" stroke-width="3.0" stroke-linejoin="round" stroke-linecap="round" d="M247.28125 202.90312L248.09375 202.90312Q248.875 202.8875 249.3125 202.49687Q249.75 202.10625 249.75 201.43437Q249.75 199.93437 248.25 199.93437Q247.54688 199.93437 247.125 200.34062Q246.71875 200.74687 246.71875 201.40312L245.625 201.40312Q245.625 200.3875 246.35938 199.71562Q247.10938 199.04375 248.25 199.04375Q249.45312 199.04375 250.14062 199.68437Q250.82812 200.325 250.82812 201.46562Q250.82812 202.02812 250.46875 202.54375Q250.10938 203.05937 249.48438 203.325Q250.1875 203.54375 250.5625 204.05937Q250.95312 204.575 250.95312 205.325Q250.95312 206.46562 250.20312 207.15312Q249.45312 207.825 248.25 207.825Q247.0625 207.825 246.29688 207.16875Q245.54688 206.5125 245.54688 205.45L246.64062 205.45Q246.64062 206.12187 247.07812 206.52812Q247.51562 206.93437 248.26562 206.93437Q249.04688 206.93437 249.45312 206.52812Q249.875 206.10625 249.875 205.34062Q249.875 204.60625 249.42188 204.21562Q248.96875 203.80937 248.09375 203.79375L247.28125 203.79375L247.28125 202.90312ZM256.96875 199.16875L256.96875 200.075L256.76562 200.075Q255.5 200.10625 254.75 200.84062Q254.0 201.55937 253.875 202.87187Q254.5625 202.10625 255.71875 202.10625Q256.82812 202.10625 257.5 202.8875Q258.17188 203.66875 258.17188 204.91875Q258.17188 206.23125 257.45312 207.02812Q256.73438 207.825 255.51562 207.825Q254.29688 207.825 253.53125 206.8875Q252.78125 205.93437 252.78125 204.45L252.78125 204.04375Q252.78125 201.68437 253.78125 200.43437Q254.78125 199.18437 256.76562 199.16875L256.96875 199.16875ZM255.54688 203.0125Q254.98438 203.0125 254.51562 203.34062Q254.04688 203.66875 253.85938 204.18437L253.85938 204.575Q253.85938 205.6375 254.32812 206.27812Q254.8125 206.91875 255.51562 206.91875Q256.25 206.91875 256.67188 206.3875Q257.09375 205.84062 257.09375 204.96562Q257.09375 204.09062 256.67188 203.55937Q256.25 203.0125 255.54688 203.0125Z" fill-rule="nonzero"/><path fill="#424242" d="M247.28125 202.90312L248.09375 202.90312Q248.875 202.8875 249.3125 202.49687Q249.75 202.10625 249.75 201.43437Q249.75 199.93437 248.25 199.93437Q247.54688 199.93437 247.125 200.34062Q246.71875 200.74687 246.71875 201.40312L245.625 201.40312Q245.625 200.3875 246.35938 199.71562Q247.10938 199.04375 248.25 199.04375Q249.45312 199.04375 250.14062 199.68437Q250.82812 200.325 250.82812 201.46562Q250.82812 202.02812 250.46875 202.54375Q250.10938 203.05937 249.48438 203.325Q250.1875 203.54375 250.5625 204.05937Q250.95312 204.575 250.95312 205.325Q250.95312 206.46562 250.20312 207.15312Q249.45312 207.825 248.25 207.825Q247.0625 207.825 246.29688 207.16875Q245.54688 206.5125 245.54688 205.45L246.64062 205.45Q246.64062 206.12187 247.07812 206.52812Q247.51562 206.93437 248.26562 206.93437Q249.04688 206.93437 249.45312 206.52812Q249.875 206.10625 249.875 205.34062Q249.875 204.60625 249.42188 204.21562Q248.96875 203.80937 248.09375 203.79375L247.28125 203.79375L247.28125 202.90312ZM256.96875 199.16875L256.96875 200.075L256.76562 200.075Q255.5 200.10625 254.75 200.84062Q254.0 201.55937 253.875 202.87187Q254.5625 202.10625 255.71875 202.10625Q256.82812 202.10625 257.5 202.8875Q258.17188 203.66875 258.17188 204.91875Q258.17188 206.23125 257.45312 207.02812Q256.73438 207.825 255.51562 207.825Q254.29688 207.825 253.53125 206.8875Q252.78125 205.93437 252.78125 204.45L252.78125 204.04375Q252.78125 201.68437 253.78125 200.43437Q254.78125 199.18437 256.76562 199.16875L256.96875 199.16875ZM255.54688 203.0125Q254.98438 203.0125 254.51562 203.34062Q254.04688 203.66875 253.85938 204.18437L253.85938 204.575Q253.85938 205.6375 254.32812 206.27812Q254.8125 206.91875 255.51562 206.91875Q256.25 206.91875 256.67188 206.3875Q257.09375 205.84062 257.09375 204.96562Q257.09375 204.09062 256.67188 203.55937Q256.25 203.0125 255.54688 203.0125Z" fill-rule="nonzero"/><path stroke="#ffffff" stroke-width="3.0" stroke-linejoin="round" stroke-linecap="round" d="M374.29688 256.03333L368.70312 256.03333L368.70312 255.25209L371.65625 251.97084Q372.3125 251.22084 372.5625 250.76772Q372.8125 250.29897 372.8125 249.79897Q372.8125 249.12709 372.40625 248.70522Q372.01562 248.26772 371.32812 248.26772Q370.53125 248.26772 370.07812 248.73647Q369.625 249.18959 369.625 250.01772L368.54688 250.01772Q368.54688 248.83022 369.29688 248.11147Q370.0625 247.37709 371.32812 247.37709Q372.53125 247.37709 373.21875 248.00209Q373.90625 248.62709 373.90625 249.67397Q373.90625 250.92397 372.29688 252.67397L370.01562 255.14272L374.29688 255.14272L374.29688 256.03333ZM381.0625 252.39272Q381.0625 254.29897 380.40625 255.23647Q379.76562 256.15833 378.375 256.15833Q377.01562 256.15833 376.35938 255.25209Q375.70312 254.34584 375.67188 252.53334L375.67188 251.09584Q375.67188 249.20522 376.3125 248.29897Q376.96875 247.37709 378.35938 247.37709Q379.73438 247.37709 380.39062 248.26772Q381.04688 249.14272 381.0625 250.98647L381.0625 252.39272ZM379.96875 250.90834Q379.96875 249.53334 379.57812 248.90834Q379.20312 248.26772 378.35938 248.26772Q377.53125 248.26772 377.14062 248.90834Q376.76562 249.53334 376.76562 250.83022L376.76562 252.56459Q376.76562 253.93959 377.15625 254.61147Q377.5625 255.26772 378.375 255.26772Q379.17188 255.26772 379.5625 254.64272Q379.95312 254.01772 379.96875 252.68959L379.96875 250.90834Z" fill-rule="nonzero"/><path fill="#424242" d="M374.29688 256.03333L368.70312 256.03333L368.70312 255.25208L371.65625 251.97083Q372.3125 251.22083 372.5625 250.7677Q372.8125 250.29895 372.8125 249.79895Q372.8125 249.12708 372.40625 248.7052Q372.01562 248.2677 371.32812 248.2677Q370.53125 248.2677 370.07812 248.73645Q369.625 249.18958 369.625 250.0177L368.54688 250.0177Q368.54688 248.8302 369.29688 248.11145Q370.0625 247.37708 371.32812 247.37708Q372.53125 247.37708 373.21875 248.00208Q373.90625 248.62708 373.90625 249.67395Q373.90625 250.92395 372.29688 252.67395L370.01562 255.1427L374.29688 255.1427L374.29688 256.03333ZM381.0625 252.3927Q381.0625 254.29895 380.40625 255.23645Q379.76562 256.15833 378.375 256.15833Q377.01562 256.15833 376.35938 255.25208Q375.70312 254.34583 375.67188 252.53333L375.67188 251.09583Q375.67188 249.2052 376.3125 248.29895Q376.96875 247.37708 378.35938 247.37708Q379.73438 247.37708 380.39062 248.2677Q381.04688 249.1427 381.0625 250.98645L381.0625 252.3927ZM379.96875 250.90833Q379.96875 249.53333 379.57812 248.90833Q379.20312 248.2677 378.35938 248.2677Q377.53125 248.2677 377.14062 248.90833Q376.76562 249.53333 376.76562 250.8302L376.76562 252.56458Q376.76562 253.93958 377.15625 254.61145Q377.5625 255.2677 378.375 255.2677Q379.17188 255.2677 379.5625 254.6427Q379.95312 254.0177 379.96875 252.68958L379.96875 250.90833Z" fill-rule="nonzero"/><path stroke="#ffffff" stroke-width="3.0" stroke-linejoin="round" stroke-linecap="round" d="M495.96875 102.50208L495.96875 103.40833L495.76562 103.40833Q494.5 103.43958 493.75 104.17396Q493.0 104.89271 492.875 106.20521Q493.5625 105.43958 494.71875 105.43958Q495.82812 105.43958 496.5 106.22083Q497.17188 107.00208 497.17188 108.25208Q497.17188 109.56458 496.45312 110.36146Q495.73438 111.15833 494.51562 111.15833Q493.29688 111.15833 492.53125 110.22083Q491.78125 109.26771 491.78125 107.78333L491.78125 107.37708Q491.78125 105.01771 492.78125 103.76771Q493.78125 102.51771 495.76562 102.50208L495.96875 102.50208ZM494.54688 106.34583Q493.98438 106.34583 493.51562 106.67396Q493.04688 107.00208 492.85938 107.51771L492.85938 107.90833Q492.85938 108.97083 493.32812 109.61146Q493.8125 110.25208 494.51562 110.25208Q495.25 110.25208 495.67188 109.72083Q496.09375 109.17396 496.09375 108.29896Q496.09375 107.42396 495.67188 106.89271Q495.25 106.34583 494.54688 106.34583ZM503.89062 104.72083Q503.89062 105.36146 503.54688 105.86146Q503.20312 106.36146 502.64062 106.64271Q503.29688 106.92396 503.6875 107.48646Q504.07812 108.03333 504.07812 108.73646Q504.07812 109.83021 503.32812 110.50208Q502.59375 111.15833 501.375 111.15833Q500.14062 111.15833 499.39062 110.50208Q498.65625 109.83021 498.65625 108.73646Q498.65625 108.03333 499.03125 107.48646Q499.40625 106.92396 500.07812 106.64271Q499.51562 106.36146 499.1875 105.86146Q498.85938 105.36146 498.85938 104.72083Q498.85938 103.64271 499.54688 103.01771Q500.23438 102.37708 501.375 102.37708Q502.5 102.37708 503.1875 103.01771Q503.89062 103.64271 503.89062 104.72083ZM503.0 108.70521Q503.0 107.98646 502.54688 107.54896Q502.09375 107.09583 501.35938 107.09583Q500.625 107.09583 500.17188 107.54896Q499.73438 107.98646 499.73438 108.72083Q499.73438 109.43958 500.17188 109.86146Q500.60938 110.26771 501.375 110.26771Q502.125 110.26771 502.5625 109.84583Q503.0 109.42396 503.0 108.70521ZM501.375 103.26771Q500.73438 103.26771 500.32812 103.67396Q499.9375 104.06458 499.9375 104.75208Q499.9375 105.39271 500.32812 105.79896Q500.71875 106.20521 501.35938 106.20521Q502.01562 106.20521 502.40625 105.79896Q502.79688 105.39271 502.79688 104.75208Q502.79688 104.09583 502.39062 103.68958Q501.98438 103.26771 501.375 103.26771Z" fill-rule="nonzero"/><path fill="#424242" d="M495.96875 102.50208L495.96875 103.40833L495.76562 103.40833Q494.5 103.43958 493.75 104.17396Q493.0 104.89271 492.875 106.20521Q493.5625 105.43958 494.71875 105.43958Q495.82812 105.43958 496.5 106.22083Q497.17188 107.00208 497.17188 108.25208Q497.17188 109.56458 496.45312 110.36146Q495.73438 111.15833 494.51562 111.15833Q493.29688 111.15833 492.53125 110.22083Q491.78125 109.26771 491.78125 107.78333L491.78125 107.37708Q491.78125 105.01771 492.78125 103.76771Q493.78125 102.51771 495.76562 102.50208L495.96875 102.50208ZM494.54688 106.34583Q493.98438 106.34583 493.51562 106.67396Q493.04688 107.00208 492.85938 107.51771L492.85938 107.90833Q492.85938 108.97083 493.32812 109.61146Q493.8125 110.25208 494.51562 110.25208Q495.25 110.25208 495.67188 109.72083Q496.09375 109.17396 496.09375 108.29896Q496.09375 107.42396 495.67188 106.89271Q495.25 106.34583 494.54688 106.34583ZM503.89062 104.72083Q503.89062 105.36146 503.54688 105.86146Q503.20312 106.36146 502.64062 106.64271Q503.29688 106.92396 503.6875 107.48646Q504.07812 108.03333 504.07812 108.73646Q504.07812 109.83021 503.32812 110.50208Q502.59375 111.15833 501.375 111.15833Q500.14062 111.15833 499.39062 110.50208Q498.65625 109.83021 498.65625 108.73646Q498.65625 108.03333 499.03125 107.48646Q499.40625 106.92396 500.07812 106.64271Q499.51562 106.36146 499.1875 105.86146Q498.85938 105.36146 498.85938 104.72083Q498.85938 103.64271 499.54688 103.01771Q500.23438 102.37708 501.375 102.37708Q502.5 102.37708 503.1875 103.01771Q503.89062 103.64271 503.89062 104.72083ZM503.0 108.70521Q503.0 107.98646 502.54688 107.54896Q502.09375 107.09583 501.35938 107.09583Q500.625 107.09583 500.17188 107.54896Q499.73438 107.98646 499.73438 108.72083Q499.73438 109.43958 500.17188 109.86146Q500.60938 110.26771 501.375 110.26771Q502.125 110.26771 502.5625 109.84583Q503.0 109.42396 503.0 108.70521ZM501.375 103.26771Q500.73438 103.26771 500.32812 103.67396Q499.9375 104.06458 499.9375 104.75208Q499.9375 105.39271 500.32812 105.79896Q500.71875 106.20521 501.35938 106.20521Q502.01562 106.20521 502.40625 105.79896Q502.79688 105.39271 502.79688 104.75208Q502.79688 104.09583 502.39062 103.68958Q501.98438 103.26771 501.375 103.26771Z" fill-rule="nonzero"/><path fill="#757575" d="M38.6125 332.3094Q38.6125 334.21564 37.95625 335.15314Q37.315624 336.075 35.925 336.075Q34.565624 336.075 33.909374 335.16876Q33.253124 334.2625 33.221874 332.45L33.221874 331.0125Q33.221874 329.1219 33.8625 328.21564Q34.51875 327.29376 35.909374 327.29376Q37.284374 327.29376 37.940624 328.1844Q38.596874 329.0594 38.6125 330.90314L38.6125 332.3094ZM37.51875 330.825Q37.51875 329.45 37.128124 328.825Q36.753124 328.1844 35.909374 328.1844Q35.08125 328.1844 34.690624 328.825Q34.315624 329.45 34.315624 330.7469L34.315624 332.48126Q34.315624 333.85626 34.70625 334.52814Q35.1125 335.1844 35.925 335.1844Q36.721874 335.1844 37.1125 334.5594Q37.503124 333.9344 37.51875 332.60626L37.51875 330.825Z" fill-rule="nonzero"/><path fill="#757575" d="M31.846874 275.53333L26.253124 275.53333L26.253124 274.75208L29.20625 271.47083Q29.8625 270.72083 30.1125 270.2677Q30.3625 269.79895 30.3625 269.29895Q30.3625 268.62708 29.95625 268.2052Q29.565624 267.7677 28.878124 267.7677Q28.08125 267.7677 27.628124 268.23645Q27.175 268.68958 27.175 269.5177L26.096874 269.5177Q26.096874 268.3302 26.846874 267.61145Q27.6125 266.87708 28.878124 266.87708Q30.08125 266.87708 30.76875 267.50208Q31.45625 268.12708 31.45625 269.17395Q31.45625 270.42395 29.846874 272.17395L27.565624 274.6427L31.846874 274.6427L31.846874 275.53333ZM38.6125 271.8927Q38.6125 273.79895 37.95625 274.73645Q37.315624 275.65833 35.925 275.65833Q34.565624 275.65833 33.909374 274.75208Q33.253124 273.84583 33.221874 272.03333L33.221874 270.59583Q33.221874 268.7052 33.8625 267.79895Q34.51875 266.87708 35.909374 266.87708Q37.284374 266.87708 37.940624 267.7677Q38.596874 268.6427 38.6125 270.48645L38.6125 271.8927ZM37.51875 270.40833Q37.51875 269.03333 37.128124 268.40833Q36.753124 267.7677 35.909374 267.7677Q35.08125 267.7677 34.690624 268.40833Q34.315624 269.03333 34.315624 270.3302L34.315624 272.06458Q34.315624 273.43958 34.70625 274.11145Q35.1125 274.7677 35.925 274.7677Q36.721874 274.7677 37.1125 274.1427Q37.503124 273.5177 37.51875 272.18958L37.51875 270.40833Z" fill-rule="nonzero"/><path fill="#757575" d="M30.83125 212.2573L32.01875 212.2573L32.01875 213.1323L30.83125 213.1323L30.83125 215.11667L29.753124 215.11667L29.753124 213.1323L25.8625 213.1323L25.8625 212.49167L29.675 206.58542L30.83125 206.58542L30.83125 212.2573ZM27.096874 212.2573L29.753124 212.2573L29.753124 208.0698L29.6125 208.30417L27.096874 212.2573ZM38.6125 211.47604Q38.6125 213.3823 37.95625 214.3198Q37.315624 215.24167 35.925 215.24167Q34.565624 215.24167 33.909374 214.33542Q33.253124 213.42917 33.221874 211.61667L33.221874 210.17917Q33.221874 208.28854 33.8625 207.3823Q34.51875 206.46042 35.909374 206.46042Q37.284374 206.46042 37.940624 207.35104Q38.596874 208.22604 38.6125 210.0698L38.6125 211.47604ZM37.51875 209.99167Q37.51875 208.61667 37.128124 207.99167Q36.753124 207.35104 35.909374 207.35104Q35.08125 207.35104 34.690624 207.99167Q34.315624 208.61667 34.315624 209.91354L34.315624 211.64792Q34.315624 213.02292 34.70625 213.6948Q35.1125 214.35104 35.925 214.35104Q36.721874 214.35104 37.1125 213.72604Q37.503124 213.10104 37.51875 211.77292L37.51875 209.99167Z" fill-rule="nonzero"/><path fill="#757575" d="M30.51875 146.16875L30.51875 147.075L30.315624 147.075Q29.05 147.10625 28.3 147.84062Q27.55 148.55937 27.425 149.87187Q28.1125 149.10625 29.26875 149.10625Q30.378124 149.10625 31.05 149.8875Q31.721874 150.66875 31.721874 151.91875Q31.721874 153.23125 31.003124 154.02812Q30.284374 154.825 29.065624 154.825Q27.846874 154.825 27.08125 153.8875Q26.33125 152.93437 26.33125 151.45L26.33125 151.04375Q26.33125 148.68437 27.33125 147.43437Q28.33125 146.18437 30.315624 146.16875L30.51875 146.16875ZM29.096874 150.0125Q28.534374 150.0125 28.065624 150.34062Q27.596874 150.66875 27.409374 151.18437L27.409374 151.575Q27.409374 152.6375 27.878124 153.27812Q28.3625 153.91875 29.065624 153.91875Q29.8 153.91875 30.221874 153.3875Q30.64375 152.84062 30.64375 151.96562Q30.64375 151.09062 30.221874 150.55937Q29.8 150.0125 29.096874 150.0125ZM38.6125 151.05937Q38.6125 152.96562 37.95625 153.90312Q37.315624 154.825 35.925 154.825Q34.565624 154.825 33.909374 153.91875Q33.253124 153.0125 33.221874 151.2L33.221874 149.7625Q33.221874 147.87187 33.8625 146.96562Q34.51875 146.04375 35.909374 146.04375Q37.284374 146.04375 37.940624 146.93437Q38.596874 147.80937 38.6125 149.65312L38.6125 151.05937ZM37.51875 149.575Q37.51875 148.2 37.128124 147.575Q36.753124 146.93437 35.909374 146.93437Q35.08125 146.93437 34.690624 147.575Q34.315624 148.2 34.315624 149.49687L34.315624 151.23125Q34.315624 152.60625 34.70625 153.27812Q35.1125 153.93437 35.925 153.93437Q36.721874 153.93437 37.1125 153.30937Q37.503124 152.68437 37.51875 151.35625L37.51875 149.575Z" fill-rule="nonzero"/><path fill="#757575" d="M31.440624 87.97083Q31.440624 88.61146 31.096874 89.11146Q30.753124 89.61146 30.190624 89.89271Q30.846874 90.17396 31.2375 90.73646Q31.628124 91.28333 31.628124 91.98646Q31.628124 93.08021 30.878124 93.75208Q30.14375 94.40833 28.925 94.40833Q27.690624 94.40833 26.940624 93.75208Q26.20625 93.08021 26.20625 91.98646Q26.20625 91.28333 26.58125 90.73646Q26.95625 90.17396 27.628124 89.89271Q27.065624 89.61146 26.7375 89.11146Q26.409374 88.61146 26.409374 87.97083Q26.409374 86.89271 27.096874 86.26771Q27.784374 85.62708 28.925 85.62708Q30.05 85.62708 30.7375 86.26771Q31.440624 86.89271 31.440624 87.97083ZM30.55 91.95521Q30.55 91.23646 30.096874 90.79896Q29.64375 90.34583 28.909374 90.34583Q28.175 90.34583 27.721874 90.79896Q27.284374 91.23646 27.284374 91.97083Q27.284374 92.68958 27.721874 93.11146Q28.159374 93.51771 28.925 93.51771Q29.675 93.51771 30.1125 93.09583Q30.55 92.67396 30.55 91.95521ZM28.925 86.51771Q28.284374 86.51771 27.878124 86.92396Q27.4875 87.31458 27.4875 88.00208Q27.4875 88.64271 27.878124 89.04896Q28.26875 89.45521 28.909374 89.45521Q29.565624 89.45521 29.95625 89.04896Q30.346874 88.64271 30.346874 88.00208Q30.346874 87.34583 29.940624 86.93958Q29.534374 86.51771 28.925 86.51771ZM38.6125 90.64271Q38.6125 92.54896 37.95625 93.48646Q37.315624 94.40833 35.925 94.40833Q34.565624 94.40833 33.909374 93.50208Q33.253124 92.59583 33.221874 90.78333L33.221874 89.34583Q33.221874 87.45521 33.8625 86.54896Q34.51875 85.62708 35.909374 85.62708Q37.284374 85.62708 37.940624 86.51771Q38.596874 87.39271 38.6125 89.23646L38.6125 90.64271ZM37.51875 89.15833Q37.51875 87.78333 37.128124 87.15833Q36.753124 86.51771 35.909374 86.51771Q35.08125 86.51771 34.690624 87.15833Q34.315624 87.78333 34.315624 89.08021L34.315624 90.81458Q34.315624 92.18958 34.70625 92.86146Q35.1125 93.51771 35.925 93.51771Q36.721874 93.51771 37.1125 92.89271Q37.503124 92.26771 37.51875 90.93958L37.51875 89.15833Z" fill-rule="nonzero"/><path fill="#757575" d="M117.644394 340.91876L120.44127 347.8719L123.22252 340.91876L124.69127 340.91876L124.69127 349.45L123.56627 349.45L123.56627 346.1219L123.675644 342.54376L120.863144 349.45L120.00377 349.45L117.206894 342.5594L117.31627 346.1219L117.31627 349.45L116.19127 349.45L116.19127 340.91876L117.644394 340.91876ZM125.738144 346.21564Q125.738144 345.29376 126.09752 344.54376Q126.47252 343.79376 127.12877 343.40314Q127.78502 342.9969 128.61314 342.9969Q129.91002 342.9969 130.7069 343.8875Q131.5194 344.77814 131.5194 346.27814L131.5194 346.35626Q131.5194 347.27814 131.16002 348.0125Q130.80064 348.7469 130.1444 349.16876Q129.48814 349.575 128.62877 349.575Q127.34752 349.575 126.53502 348.6844Q125.738144 347.77814 125.738144 346.29376L125.738144 346.21564ZM126.831894 346.35626Q126.831894 347.40314 127.31627 348.04376Q127.81627 348.6844 128.62877 348.6844Q129.4569 348.6844 129.94127 348.04376Q130.42564 347.3875 130.42564 346.21564Q130.42564 345.1844 129.92564 344.54376Q129.44127 343.8875 128.61314 343.8875Q127.81627 343.8875 127.31627 344.52814Q126.831894 345.15314 126.831894 346.35626ZM134.6444 340.91876L137.44127 347.8719L140.22252 340.91876L141.69127 340.91876L141.69127 349.45L140.56627 349.45L140.56627 346.1219L140.67564 342.54376L137.86314 349.45L137.00377 349.45L134.2069 342.5594L134.31627 346.1219L134.31627 349.45L133.19127 349.45L133.19127 340.91876L134.6444 340.91876Z" fill-rule="nonzero"/><path fill="#757575" d="M209.66792 349.45L208.5898 349.45L208.5898 342.23126L206.4023 343.02814L206.4023 342.04376L209.51167 340.8719L209.66792 340.8719L209.66792 349.45ZM216.91792 347.7625Q216.91792 347.325 216.57417 347.09064Q216.24605 346.84064 215.41792 346.66876Q214.60542 346.4969 214.12105 346.2469Q213.63667 345.9969 213.4023 345.66876Q213.18355 345.325 213.18355 344.85626Q213.18355 344.075 213.8398 343.54376Q214.49605 342.9969 215.5273 342.9969Q216.60542 342.9969 217.26167 343.5594Q217.93355 344.10626 217.93355 344.96564L216.85542 344.96564Q216.85542 344.52814 216.4648 344.21564Q216.0898 343.8875 215.5273 343.8875Q214.93355 343.8875 214.5898 344.15314Q214.26167 344.40314 214.26167 344.8094Q214.26167 345.2 214.57417 345.40314Q214.88667 345.60626 215.69917 345.79376Q216.51167 345.96564 217.01167 346.21564Q217.51167 346.46564 217.74605 346.825Q217.99605 347.1844 217.99605 347.6844Q217.99605 348.54376 217.30855 349.0594Q216.63667 349.575 215.55855 349.575Q214.79292 349.575 214.19917 349.3094Q213.62105 349.02814 213.29292 348.54376Q212.9648 348.0594 212.9648 347.4969L214.04292 347.4969Q214.07417 348.04376 214.48042 348.3719Q214.88667 348.6844 215.55855 348.6844Q216.16792 348.6844 216.54292 348.4344Q216.91792 348.1844 216.91792 347.7625ZM220.69917 341.575L220.69917 343.10626L221.87105 343.10626L221.87105 343.95L220.69917 343.95L220.69917 347.8719Q220.69917 348.2625 220.85542 348.45Q221.01167 348.6375 221.38667 348.6375Q221.57417 348.6375 221.9023 348.575L221.9023 349.45Q221.48042 349.575 221.07417 349.575Q220.35542 349.575 219.98042 349.1375Q219.60542 348.6844 219.60542 347.8719L219.60542 343.95L218.44917 343.95L218.44917 343.10626L219.60542 343.10626L219.60542 341.575L220.69917 341.575ZM227.8398 340.91876L230.63667 347.8719L233.41792 340.91876L234.88667 340.91876L234.88667 349.45L233.76167 349.45L233.76167 346.1219L233.87105 342.54376L231.05855 349.45L230.19917 349.45L227.4023 342.5594L227.51167 346.1219L227.51167 349.45L226.38667 349.45L226.38667 340.91876L227.8398 340.91876ZM237.4023 349.45L236.32417 349.45L236.32417 343.10626L237.4023 343.10626L237.4023 349.45ZM236.23042 341.4344Q236.23042 341.16876 236.38667 340.98126Q236.55855 340.79376 236.87105 340.79376Q237.18355 340.79376 237.3398 340.98126Q237.51167 341.16876 237.51167 341.4344Q237.51167 341.6844 237.3398 341.8719Q237.18355 342.04376 236.87105 342.04376Q236.55855 342.04376 236.38667 341.8719Q236.23042 341.6844 236.23042 341.4344ZM241.76167 348.6844Q242.3398 348.6844 242.7773 348.34064Q243.2148 347.98126 243.26167 347.45L244.29292 347.45Q244.26167 347.9969 243.9023 348.4969Q243.55855 348.98126 242.98042 349.27814Q242.41792 349.575 241.76167 349.575Q240.4648 349.575 239.69917 348.71564Q238.94917 347.84064 238.94917 346.34064L238.94917 346.15314Q238.94917 345.23126 239.2773 344.5125Q239.62105 343.79376 240.24605 343.40314Q240.88667 342.9969 241.76167 342.9969Q242.82417 342.9969 243.5273 343.6375Q244.24605 344.2625 244.29292 345.29376L243.26167 345.29376Q243.2148 344.66876 242.79292 344.27814Q242.37105 343.8875 241.76167 343.8875Q240.93355 343.8875 240.48042 344.48126Q240.0273 345.075 240.0273 346.2L240.0273 346.40314Q240.0273 347.4969 240.48042 348.09064Q240.93355 348.6844 241.76167 348.6844ZM248.29292 344.075Q248.04292 344.04376 247.76167 344.04376Q246.68355 344.04376 246.30855 344.95L246.30855 349.45L245.23042 349.45L245.23042 343.10626L246.2773 343.10626L246.29292 343.84064Q246.82417 342.9969 247.80855 342.9969Q248.12105 342.9969 248.29292 343.075L248.29292 344.075ZM248.93355 346.21564Q248.93355 345.29376 249.29292 344.54376Q249.66792 343.79376 250.32417 343.40314Q250.98042 342.9969 251.80855 342.9969Q253.10542 342.9969 253.9023 343.8875Q254.7148 344.77814 254.7148 346.27814L254.7148 346.35626Q254.7148 347.27814 254.35542 348.0125Q253.99605 348.7469 253.3398 349.16876Q252.68355 349.575 251.82417 349.575Q250.54292 349.575 249.73042 348.6844Q248.93355 347.77814 248.93355 346.29376L248.93355 346.21564ZM250.0273 346.35626Q250.0273 347.40314 250.51167 348.04376Q251.01167 348.6844 251.82417 348.6844Q252.6523 348.6844 253.13667 348.04376Q253.62105 347.3875 253.62105 346.21564Q253.62105 345.1844 253.12105 344.54376Q252.63667 343.8875 251.80855 343.8875Q251.01167 343.8875 250.51167 344.52814Q250.0273 345.15314 250.0273 346.35626ZM259.9179 347.7625Q259.9179 347.325 259.57416 347.09064Q259.24603 346.84064 258.4179 346.66876Q257.6054 346.4969 257.12103 346.2469Q256.63666 345.9969 256.40228 345.66876Q256.18353 345.325 256.18353 344.85626Q256.18353 344.075 256.83978 343.54376Q257.49603 342.9969 258.52728 342.9969Q259.6054 342.9969 260.26166 343.5594Q260.93353 344.10626 260.93353 344.96564L259.8554 344.96564Q259.8554 344.52814 259.46478 344.21564Q259.08978 343.8875 258.52728 343.8875Q257.93353 343.8875 257.58978 344.15314Q257.26166 344.40314 257.26166 344.8094Q257.26166 345.2 257.57416 345.40314Q257.88666 345.60626 258.69916 345.79376Q259.51166 345.96564 260.01166 346.21564Q260.51166 346.46564 260.74603 346.825Q260.99603 347.1844 260.99603 347.6844Q260.99603 348.54376 260.30853 349.0594Q259.63666 349.575 258.55853 349.575Q257.7929 349.575 257.19916 349.3094Q256.62103 349.02814 256.2929 348.54376Q255.9648 348.0594 255.9648 347.4969L257.0429 347.4969Q257.07416 348.04376 257.4804 348.3719Q257.88666 348.6844 258.55853 348.6844Q259.1679 348.6844 259.5429 348.4344Q259.9179 348.1844 259.9179 347.7625ZM264.8554 349.575Q263.55853 349.575 262.74603 348.73126Q261.94916 347.8719 261.94916 346.45L261.94916 346.2625Q261.94916 345.3094 262.30853 344.575Q262.6679 343.825 263.30853 343.41876Q263.96478 342.9969 264.71478 342.9969Q265.94916 342.9969 266.63666 343.8094Q267.32416 344.6219 267.32416 346.1375L267.32416 346.59064L263.02728 346.59064Q263.05853 347.52814 263.57416 348.10626Q264.1054 348.6844 264.9179 348.6844Q265.4804 348.6844 265.87103 348.45Q266.27728 348.21564 266.58978 347.825L267.24603 348.34064Q266.44916 349.575 264.8554 349.575ZM264.71478 343.8875Q264.05853 343.8875 263.6054 344.3719Q263.1679 344.84064 263.07416 345.7L266.24603 345.7L266.24603 345.6219Q266.19916 344.79376 265.7929 344.34064Q265.40228 343.8875 264.71478 343.8875ZM271.2929 344.075Q271.0429 344.04376 270.76166 344.04376Q269.68353 344.04376 269.30853 344.95L269.30853 349.45L268.2304 349.45L268.2304 343.10626L269.27728 343.10626L269.2929 343.84064Q269.82416 342.9969 270.80853 342.9969Q271.12103 342.9969 271.2929 343.075L271.2929 344.075ZM274.30853 347.98126L275.88666 343.10626L276.99603 343.10626L274.71478 349.45L273.88666 349.45L271.58978 343.10626L272.69916 343.10626L274.30853 347.98126ZM279.40228 349.45L278.32416 349.45L278.32416 343.10626L279.40228 343.10626L279.40228 349.45ZM278.2304 341.4344Q278.2304 341.16876 278.38666 340.98126Q278.55853 340.79376 278.87103 340.79376Q279.18353 340.79376 279.33978 340.98126Q279.51166 341.16876 279.51166 341.4344Q279.51166 341.6844 279.33978 341.8719Q279.18353 342.04376 278.87103 342.04376Q278.55853 342.04376 278.38666 341.8719Q278.2304 341.6844 278.2304 341.4344ZM283.76166 348.6844Q284.33978 348.6844 284.77728 348.34064Q285.21478 347.98126 285.26166 347.45L286.2929 347.45Q286.26166 347.9969 285.90228 348.4969Q285.55853 348.98126 284.9804 349.27814Q284.4179 349.575 283.76166 349.575Q282.46478 349.575 281.69916 348.71564Q280.94916 347.84064 280.94916 346.34064L280.94916 346.15314Q280.94916 345.23126 281.27728 344.5125Q281.62103 343.79376 282.24603 343.40314Q282.88666 342.9969 283.76166 342.9969Q284.82416 342.9969 285.52728 343.6375Q286.24603 344.2625 286.2929 345.29376L285.26166 345.29376Q285.21478 344.66876 284.7929 344.27814Q284.37103 343.8875 283.76166 343.8875Q282.93353 343.8875 282.4804 344.48126Q282.02728 345.075 282.02728 346.2L282.02728 346.40314Q282.02728 347.4969 282.4804 348.09064Q282.93353 348.6844 283.76166 348.6844ZM289.8554 349.575Q288.55853 349.575 287.74603 348.73126Q286.94916 347.8719 286.94916 346.45L286.94916 346.2625Q286.94916 345.3094 287.30853 344.575Q287.6679 343.825 288.30853 343.41876Q288.96478 342.9969 289.71478 342.9969Q290.94916 342.9969 291.63666 343.8094Q292.32416 344.6219 292.32416 346.1375L292.32416 346.59064L288.02728 346.59064Q288.05853 347.52814 288.57416 348.10626Q289.1054 348.6844 289.9179 348.6844Q290.4804 348.6844 290.87103 348.45Q291.27728 348.21564 291.58978 347.825L292.24603 348.34064Q291.44916 349.575 289.8554 349.575ZM289.71478 343.8875Q289.05853 343.8875 288.6054 344.3719Q288.1679 344.84064 288.07416 345.7L291.24603 345.7L291.24603 345.6219Q291.19916 344.79376 290.7929 344.34064Q290.40228 343.8875 289.71478 343.8875ZM296.9179 347.7625Q296.9179 347.325 296.57416 347.09064Q296.24603 346.84064 295.4179 346.66876Q294.6054 346.4969 294.12103 346.2469Q293.63666 345.9969 293.40228 345.66876Q293.18353 345.325 293.18353 344.85626Q293.18353 344.075 293.83978 343.54376Q294.49603 342.9969 295.52728 342.9969Q296.6054 342.9969 297.26166 343.5594Q297.93353 344.10626 297.93353 344.96564L296.8554 344.96564Q296.8554 344.52814 296.46478 344.21564Q296.08978 343.8875 295.52728 343.8875Q294.93353 343.8875 294.58978 344.15314Q294.26166 344.40314 294.26166 344.8094Q294.26166 345.2 294.57416 345.40314Q294.88666 345.60626 295.69916 345.79376Q296.51166 345.96564 297.01166 346.21564Q297.51166 346.46564 297.74603 346.825Q297.99603 347.1844 297.99603 347.6844Q297.99603 348.54376 297.30853 349.0594Q296.63666 349.575 295.55853 349.575Q294.7929 349.575 294.19916 349.3094Q293.62103 349.02814 293.2929 348.54376Q292.96478 348.0594 292.96478 347.4969L294.0429 347.4969Q294.07416 348.04376 294.4804 348.3719Q294.88666 348.6844 295.55853 348.6844Q296.1679 348.6844 296.5429 348.4344Q296.9179 348.1844 296.9179 347.7625Z" fill-rule="nonzero"/><path fill="#757575" d="M361.0352 340.91876L363.83206 347.8719L366.6133 340.91876L368.08206 340.91876L368.08206 349.45L366.95706 349.45L366.95706 346.1219L367.06644 342.54376L364.25394 349.45L363.39456 349.45L360.5977 342.5594L360.70706 346.1219L360.70706 349.45L359.58206 349.45L359.58206 340.91876L361.0352 340.91876ZM374.3008 347.21564L370.7227 347.21564L369.9258 349.45L368.76956 349.45L372.01956 340.91876L373.00394 340.91876L376.26956 349.45L375.1133 349.45L374.3008 347.21564ZM371.06644 346.29376L373.9727 346.29376L372.51956 342.3094L371.06644 346.29376ZM377.58206 349.45L377.58206 340.91876L380.00394 340.91876Q381.1133 340.91876 381.95706 341.41876Q382.81644 341.90314 383.2852 342.8094Q383.75394 343.71564 383.75394 344.90314L383.75394 345.4344Q383.75394 346.65314 383.2852 347.5594Q382.83206 348.46564 381.95706 348.95Q381.0977 349.4344 379.95706 349.45L377.58206 349.45ZM378.70706 341.84064L378.70706 348.52814L379.89456 348.52814Q381.19144 348.52814 381.9102 347.73126Q382.64456 346.91876 382.64456 345.41876L382.64456 344.91876Q382.64456 343.46564 381.95706 342.66876Q381.2852 341.85626 380.01956 341.84064L378.70706 341.84064ZM390.4102 345.5125L386.70706 345.5125L386.70706 348.52814L391.00394 348.52814L391.00394 349.45L385.58206 349.45L385.58206 340.91876L390.95706 340.91876L390.95706 341.84064L386.70706 341.84064L386.70706 344.59064L390.4102 344.59064L390.4102 345.5125Z" fill-rule="nonzero"/><path fill="#757575" d="M456.08997 349.45L450.49622 349.45L450.49622 348.66876L453.44934 345.3875Q454.1056 344.6375 454.3556 344.1844Q454.6056 343.71564 454.6056 343.21564Q454.6056 342.54376 454.19934 342.1219Q453.80872 341.6844 453.12122 341.6844Q452.32434 341.6844 451.87122 342.15314Q451.4181 342.60626 451.4181 343.4344L450.33997 343.4344Q450.33997 342.2469 451.08997 341.52814Q451.8556 340.79376 453.12122 340.79376Q454.32434 340.79376 455.01184 341.41876Q455.69934 342.04376 455.69934 343.09064Q455.69934 344.34064 454.08997 346.09064L451.80872 348.5594L456.08997 348.5594L456.08997 349.45ZM458.63684 343.10626L458.6681 343.90314Q459.40247 342.9969 460.57434 342.9969Q462.58997 342.9969 462.6056 345.2625L462.6056 349.45L461.51184 349.45L461.51184 345.2469Q461.51184 344.575 461.19934 344.2469Q460.90247 343.91876 460.24622 343.91876Q459.71497 343.91876 459.30872 344.2Q458.9181 344.48126 458.69934 344.9344L458.69934 349.45L457.62122 349.45L457.62122 343.10626L458.63684 343.10626ZM464.3556 346.23126Q464.3556 344.7625 465.0431 343.8875Q465.7306 342.9969 466.8556 342.9969Q467.96497 342.9969 468.62122 343.7469L468.62122 340.45L469.69934 340.45L469.69934 349.45L468.69934 349.45L468.65247 348.7625Q467.99622 349.575 466.83997 349.575Q465.74622 349.575 465.0431 348.66876Q464.3556 347.7625 464.3556 346.3094L464.3556 346.23126ZM465.43372 346.35626Q465.43372 347.4344 465.87122 348.04376Q466.32434 348.65314 467.1056 348.65314Q468.13684 348.65314 468.62122 347.71564L468.62122 344.8094Q468.13684 343.91876 467.12122 343.91876Q466.32434 343.91876 465.87122 344.52814Q465.43372 345.1375 465.43372 346.35626ZM476.2306 340.91876L479.02747 347.8719L481.80872 340.91876L483.27747 340.91876L483.27747 349.45L482.15247 349.45L482.15247 346.1219L482.26184 342.54376L479.44934 349.45L478.58997 349.45L475.7931 342.5594L475.90247 346.1219L475.90247 349.45L474.77747 349.45L474.77747 340.91876L476.2306 340.91876ZM485.7931 349.45L484.71497 349.45L484.71497 343.10626L485.7931 343.10626L485.7931 349.45ZM484.62122 341.4344Q484.62122 341.16876 484.77747 340.98126Q484.94934 340.79376 485.26184 340.79376Q485.57434 340.79376 485.7306 340.98126Q485.90247 341.16876 485.90247 341.4344Q485.90247 341.6844 485.7306 341.8719Q485.57434 342.04376 485.26184 342.04376Q484.94934 342.04376 484.77747 341.8719Q484.62122 341.6844 484.62122 341.4344ZM490.15247 348.6844Q490.7306 348.6844 491.1681 348.34064Q491.6056 347.98126 491.65247 347.45L492.68372 347.45Q492.65247 347.9969 492.2931 348.4969Q491.94934 348.98126 491.37122 349.27814Q490.80872 349.575 490.15247 349.575Q488.8556 349.575 488.08997 348.71564Q487.33997 347.84064 487.33997 346.34064L487.33997 346.15314Q487.33997 345.23126 487.6681 344.5125Q488.01184 343.79376 488.63684 343.40314Q489.27747 342.9969 490.15247 342.9969Q491.21497 342.9969 491.9181 343.6375Q492.63684 344.2625 492.68372 345.29376L491.65247 345.29376Q491.6056 344.66876 491.18372 344.27814Q490.76184 343.8875 490.15247 343.8875Q489.32434 343.8875 488.87122 344.48126Q488.4181 345.075 488.4181 346.2L488.4181 346.40314Q488.4181 347.4969 488.87122 348.09064Q489.32434 348.6844 490.15247 348.6844ZM496.68372 344.075Q496.43372 344.04376 496.15247 344.04376Q495.07434 344.04376 494.69934 344.95L494.69934 349.45L493.62122 349.45L493.62122 343.10626L494.6681 343.10626L494.68372 343.84064Q495.21497 342.9969 496.19934 342.9969Q496.51184 342.9969 496.68372 343.075L496.68372 344.075ZM497.32434 346.21564Q497.32434 345.29376 497.68372 344.54376Q498.05872 343.79376 498.71497 343.40314Q499.37122 342.9969 500.19934 342.9969Q501.49622 342.9969 502.2931 343.8875Q503.1056 344.77814 503.1056 346.27814L503.1056 346.35626Q503.1056 347.27814 502.74622 348.0125Q502.38684 348.7469 501.7306 349.16876Q501.07434 349.575 500.21497 349.575Q498.93372 349.575 498.12122 348.6844Q497.32434 347.77814 497.32434 346.29376L497.32434 346.21564ZM498.4181 346.35626Q498.4181 347.40314 498.90247 348.04376Q499.40247 348.6844 500.21497 348.6844Q501.0431 348.6844 501.52747 348.04376Q502.01184 347.3875 502.01184 346.21564Q502.01184 345.1844 501.51184 344.54376Q501.02747 343.8875 500.19934 343.8875Q499.40247 343.8875 498.90247 344.52814Q498.4181 345.15314 498.4181 346.35626ZM508.30872 347.7625Q508.30872 347.325 507.96497 347.09064Q507.63684 346.84064 506.80872 346.66876Q505.99622 346.4969 505.51184 346.2469Q505.02747 345.9969 504.7931 345.66876Q504.57434 345.325 504.57434 344.85626Q504.57434 344.075 505.2306 343.54376Q505.88684 342.9969 506.9181 342.9969Q507.99622 342.9969 508.65247 343.5594Q509.32434 344.10626 509.32434 344.96564L508.24622 344.96564Q508.24622 344.52814 507.8556 344.21564Q507.4806 343.8875 506.9181 343.8875Q506.32434 343.8875 505.9806 344.15314Q505.65247 344.40314 505.65247 344.8094Q505.65247 345.2 505.96497 345.40314Q506.27747 345.60626 507.08997 345.79376Q507.90247 345.96564 508.40247 346.21564Q508.90247 346.46564 509.13684 346.825Q509.38684 347.1844 509.38684 347.6844Q509.38684 348.54376 508.69934 349.0594Q508.02747 349.575 506.94934 349.575Q506.18372 349.575 505.58997 349.3094Q505.01184 349.02814 504.68372 348.54376Q504.3556 348.0594 504.3556 347.4969L505.43372 347.4969Q505.46497 348.04376 505.87122 348.3719Q506.27747 348.6844 506.94934 348.6844Q507.55872 348.6844 507.93372 348.4344Q508.30872 348.1844 508.30872 347.7625ZM513.2462 349.575Q511.94934 349.575 511.13684 348.73126Q510.33997 347.8719 510.33997 346.45L510.33997 346.2625Q510.33997 345.3094 510.69934 344.575Q511.05872 343.825 511.69934 343.41876Q512.3556 342.9969 513.1056 342.9969Q514.33997 342.9969 515.02747 343.8094Q515.71497 344.6219 515.71497 346.1375L515.71497 346.59064L511.4181 346.59064Q511.44934 347.52814 511.96497 348.10626Q512.4962 348.6844 513.3087 348.6844Q513.8712 348.6844 514.26184 348.45Q514.6681 348.21564 514.9806 347.825L515.63684 348.34064Q514.83997 349.575 513.2462 349.575ZM513.1056 343.8875Q512.44934 343.8875 511.99622 344.3719Q511.55872 344.84064 511.46497 345.7L514.63684 345.7L514.63684 345.6219Q514.58997 344.79376 514.1837 344.34064Q513.7931 343.8875 513.1056 343.8875ZM519.6837 344.075Q519.4337 344.04376 519.15247 344.04376Q518.07434 344.04376 517.69934 344.95L517.69934 349.45L516.6212 349.45L516.6212 343.10626L517.6681 343.10626L517.6837 343.84064Q518.21497 342.9969 519.19934 342.9969Q519.51184 342.9969 519.6837 343.075L519.6837 344.075ZM522.69934 347.98126L524.27747 343.10626L525.38684 343.10626L523.1056 349.45L522.27747 349.45L519.9806 343.10626L521.08997 343.10626L522.69934 347.98126ZM527.7931 349.45L526.71497 349.45L526.71497 343.10626L527.7931 343.10626L527.7931 349.45ZM526.6212 341.4344Q526.6212 341.16876 526.77747 340.98126Q526.94934 340.79376 527.26184 340.79376Q527.57434 340.79376 527.7306 340.98126Q527.90247 341.16876 527.90247 341.4344Q527.90247 341.6844 527.7306 341.8719Q527.57434 342.04376 527.26184 342.04376Q526.94934 342.04376 526.77747 341.8719Q526.6212 341.6844 526.6212 341.4344ZM532.15247 348.6844Q532.7306 348.6844 533.1681 348.34064Q533.6056 347.98126 533.65247 347.45L534.6837 347.45Q534.65247 347.9969 534.2931 348.4969Q533.94934 348.98126 533.3712 349.27814Q532.8087 349.575 532.15247 349.575Q530.8556 349.575 530.08997 348.71564Q529.33997 347.84064 529.33997 346.34064L529.33997 346.15314Q529.33997 345.23126 529.6681 344.5125Q530.01184 343.79376 530.63684 343.40314Q531.27747 342.9969 532.15247 342.9969Q533.21497 342.9969 533.9181 343.6375Q534.63684 344.2625 534.6837 345.29376L533.65247 345.29376Q533.6056 344.66876 533.1837 344.27814Q532.76184 343.8875 532.15247 343.8875Q531.32434 343.8875 530.8712 344.48126Q530.4181 345.075 530.4181 346.2L530.4181 346.40314Q530.4181 347.4969 530.8712 348.09064Q531.32434 348.6844 532.15247 348.6844ZM538.2462 349.575Q536.94934 349.575 536.13684 348.73126Q535.33997 347.8719 535.33997 346.45L535.33997 346.2625Q535.33997 345.3094 535.69934 344.575Q536.0587 343.825 536.69934 343.41876Q537.3556 342.9969 538.1056 342.9969Q539.33997 342.9969 540.02747 343.8094Q540.71497 344.6219 540.71497 346.1375L540.71497 346.59064L536.4181 346.59064Q536.44934 347.52814 536.96497 348.10626Q537.4962 348.6844 538.3087 348.6844Q538.8712 348.6844 539.26184 348.45Q539.6681 348.21564 539.9806 347.825L540.63684 348.34064Q539.83997 349.575 538.2462 349.575ZM538.1056 343.8875Q537.44934 343.8875 536.9962 344.3719Q536.5587 344.84064 536.46497 345.7L539.63684 345.7L539.63684 345.6219Q539.58997 344.79376 539.1837 344.34064Q538.7931 343.8875 538.1056 343.8875ZM545.3087 347.7625Q545.3087 347.325 544.96497 347.09064Q544.63684 346.84064 543.8087 346.66876Q542.9962 346.4969 542.51184 346.2469Q542.02747 345.9969 541.7931 345.66876Q541.57434 345.325 541.57434 344.85626Q541.57434 344.075 542.2306 343.54376Q542.88684 342.9969 543.9181 342.9969Q544.9962 342.9969 545.65247 343.5594Q546.32434 344.10626 546.32434 344.96564L545.2462 344.96564Q545.2462 344.52814 544.8556 344.21564Q544.4806 343.8875 543.9181 343.8875Q543.32434 343.8875 542.9806 344.15314Q542.65247 344.40314 542.65247 344.8094Q542.65247 345.2 542.96497 345.40314Q543.27747 345.60626 544.08997 345.79376Q544.90247 345.96564 545.40247 346.21564Q545.90247 346.46564 546.13684 346.825Q546.38684 347.1844 546.38684 347.6844Q546.38684 348.54376 545.69934 349.0594Q545.02747 349.575 543.94934 349.575Q543.1837 349.575 542.58997 349.3094Q542.01184 349.02814 541.6837 348.54376Q541.3556 348.0594 541.3556 347.4969L542.4337 347.4969Q542.46497 348.04376 542.8712 348.3719Q543.27747 348.6844 543.94934 348.6844Q544.5587 348.6844 544.9337 348.4344Q545.3087 348.1844 545.3087 347.7625Z" fill-rule="nonzero"/><path fill="#db4437" d="M222.5 57.416668C222.5 56.864384 222.94771 56.416668 223.5 56.416668L233.5 56.416668C234.05229 56.416668 234.5 56.864384 234.5 57.416668L234.5 67.416664C234.5 67.96895 234.05229 68.416664 233.5 68.416664L223.5 68.416664C222.94771 68.416664 222.5 67.96895 222.5 67.416664Z" fill-rule="nonzero"/><path fill="#757575" d="M248.20312 64.68229L244.625 64.68229L243.82812 66.916664L242.67188 66.916664L245.92188 58.385414L246.90625 58.385414L250.17188 66.916664L249.01562 66.916664L248.20312 64.68229ZM244.96875 63.760414L247.875 63.760414L246.42188 59.77604L244.96875 63.760414ZM253.85938 66.15104Q254.4375 66.15104 254.875 65.80729Q255.3125 65.447914 255.35938 64.916664L256.39062 64.916664Q256.35938 65.46354 256.0 65.96354Q255.65625 66.447914 255.07812 66.74479Q254.51562 67.041664 253.85938 67.041664Q252.5625 67.041664 251.79688 66.18229Q251.04688 65.30729 251.04688 63.80729L251.04688 63.61979Q251.04688 62.697914 251.375 61.979164Q251.71875 61.260414 252.34375 60.86979Q252.98438 60.46354 253.85938 60.46354Q254.92188 60.46354 255.625 61.104164Q256.34375 61.729164 256.39062 62.760414L255.35938 62.760414Q255.3125 62.135414 254.89062 61.74479Q254.46875 61.354164 253.85938 61.354164Q253.03125 61.354164 252.57812 61.947914Q252.125 62.541664 252.125 63.666664L252.125 63.86979Q252.125 64.96354 252.57812 65.55729Q253.03125 66.15104 253.85938 66.15104ZM261.23438 66.916664Q261.14062 66.729164 261.07812 66.24479Q260.32812 67.041664 259.28125 67.041664Q258.34375 67.041664 257.73438 66.510414Q257.14062 65.979164 257.14062 65.15104Q257.14062 64.166664 257.89062 63.61979Q258.64062 63.072914 260.01562 63.072914L261.0625 63.072914L261.0625 62.572914Q261.0625 62.010414 260.71875 61.68229Q260.39062 61.33854 259.71875 61.33854Q259.14062 61.33854 258.75 61.635414Q258.35938 61.916664 258.35938 62.33854L257.26562 62.33854Q257.26562 61.854164 257.59375 61.416664Q257.9375 60.979164 258.51562 60.729164Q259.09375 60.46354 259.78125 60.46354Q260.89062 60.46354 261.5 61.010414Q262.125 61.55729 262.15625 62.510414L262.15625 65.43229Q262.15625 66.30729 262.375 66.822914L262.375 66.916664L261.23438 66.916664ZM259.4375 66.08854Q259.95312 66.08854 260.40625 65.822914Q260.85938 65.55729 261.0625 65.135414L261.0625 63.83854L260.21875 63.83854Q258.21875 63.83854 258.21875 65.010414Q258.21875 65.510414 258.5625 65.80729Q258.90625 66.08854 259.4375 66.08854ZM264.0625 63.697914Q264.0625 62.229164 264.75 61.354164Q265.4375 60.46354 266.5625 60.46354Q267.67188 60.46354 268.32812 61.21354L268.32812 57.916664L269.40625 57.916664L269.40625 66.916664L268.40625 66.916664L268.35938 66.229164Q267.70312 67.041664 266.54688 67.041664Q265.45312 67.041664 264.75 66.135414Q264.0625 65.229164 264.0625 63.77604L264.0625 63.697914ZM265.14062 63.822914Q265.14062 64.90104 265.57812 65.510414Q266.03125 66.11979 266.8125 66.11979Q267.84375 66.11979 268.32812 65.18229L268.32812 62.27604Q267.84375 61.385414 266.82812 61.385414Q266.03125 61.385414 265.57812 61.99479Q265.14062 62.604164 265.14062 63.822914ZM273.95312 67.041664Q272.65625 67.041664 271.84375 66.197914Q271.04688 65.33854 271.04688 63.916664L271.04688 63.729164Q271.04688 62.77604 271.40625 62.041664Q271.76562 61.291664 272.40625 60.885414Q273.0625 60.46354 273.8125 60.46354Q275.04688 60.46354 275.73438 61.27604Q276.42188 62.08854 276.42188 63.604164L276.42188 64.05729L272.125 64.05729Q272.15625 64.99479 272.67188 65.572914Q273.20312 66.15104 274.01562 66.15104Q274.57812 66.15104 274.96875 65.916664Q275.375 65.68229 275.6875 65.291664L276.34375 65.80729Q275.54688 67.041664 273.95312 67.041664ZM273.8125 61.354164Q273.15625 61.354164 272.70312 61.83854Q272.26562 62.30729 272.17188 63.166664L275.34375 63.166664L275.34375 63.08854Q275.29688 62.260414 274.89062 61.80729Q274.5 61.354164 273.8125 61.354164ZM278.34375 60.572914L278.375 61.27604Q279.0625 60.46354 280.25 60.46354Q281.57812 60.46354 282.0625 61.479164Q282.375 61.02604 282.875 60.74479Q283.39062 60.46354 284.07812 60.46354Q286.17188 60.46354 286.20312 62.666664L286.20312 66.916664L285.125 66.916664L285.125 62.729164Q285.125 62.05729 284.8125 61.729164Q284.5 61.385414 283.76562 61.385414Q283.15625 61.385414 282.75 61.74479Q282.35938 62.104164 282.29688 62.71354L282.29688 66.916664L281.21875 66.916664L281.21875 62.760414Q281.21875 61.385414 279.85938 61.385414Q278.79688 61.385414 278.40625 62.291664L278.40625 66.916664L277.3125 66.916664L277.3125 60.572914L278.34375 60.572914ZM289.5 66.916664L288.42188 66.916664L288.42188 60.572914L289.5 60.572914L289.5 66.916664ZM288.32812 58.90104Q288.32812 58.635414 288.48438 58.447914Q288.65625 58.260414 288.96875 58.260414Q289.28125 58.260414 289.4375 58.447914Q289.60938 58.635414 289.60938 58.90104Q289.60938 59.15104 289.4375 59.33854Q289.28125 59.510414 288.96875 59.510414Q288.65625 59.510414 288.48438 59.33854Q288.32812 59.15104 288.32812 58.90104ZM295.23438 66.916664Q295.14062 66.729164 295.07812 66.24479Q294.32812 67.041664 293.28125 67.041664Q292.34375 67.041664 291.73438 66.510414Q291.14062 65.979164 291.14062 65.15104Q291.14062 64.166664 291.89062 63.61979Q292.64062 63.072914 294.01562 63.072914L295.0625 63.072914L295.0625 62.572914Q295.0625 62.010414 294.71875 61.68229Q294.39062 61.33854 293.71875 61.33854Q293.14062 61.33854 292.75 61.635414Q292.35938 61.916664 292.35938 62.33854L291.26562 62.33854Q291.26562 61.854164 291.59375 61.416664Q291.9375 60.979164 292.51562 60.729164Q293.09375 60.46354 293.78125 60.46354Q294.89062 60.46354 295.5 61.010414Q296.125 61.55729 296.15625 62.510414L296.15625 65.43229Q296.15625 66.30729 296.375 66.822914L296.375 66.916664L295.23438 66.916664ZM293.4375 66.08854Q293.95312 66.08854 294.40625 65.822914Q294.85938 65.55729 295.0625 65.135414L295.0625 63.83854L294.21875 63.83854Q292.21875 63.83854 292.21875 65.010414Q292.21875 65.510414 292.5625 65.80729Q292.90625 66.08854 293.4375 66.08854Z" fill-rule="nonzero"/><path fill="#4285f4" d="M313.5 57.416668C313.5 56.864384 313.94772 56.416668 314.5 56.416668L324.5 56.416668C325.05228 56.416668 325.5 56.864384 325.5 57.416668L325.5 67.416664C325.5 67.96895 325.05228 68.416664 324.5 68.416664L314.5 68.416664C313.94772 68.416664 313.5 67.96895 313.5 67.416664Z" fill-rule="nonzero"/><path fill="#757575" d="M335.70312 66.916664L334.57812 66.916664L334.57812 58.385414L335.70312 58.385414L335.70312 66.916664ZM338.34375 60.572914L338.375 61.36979Q339.10938 60.46354 340.28125 60.46354Q342.29688 60.46354 342.3125 62.729164L342.3125 66.916664L341.21875 66.916664L341.21875 62.71354Q341.21875 62.041664 340.90625 61.71354Q340.60938 61.385414 339.95312 61.385414Q339.42188 61.385414 339.01562 61.666664Q338.625 61.947914 338.40625 62.40104L338.40625 66.916664L337.32812 66.916664L337.32812 60.572914L338.34375 60.572914ZM344.0625 63.697914Q344.0625 62.229164 344.75 61.354164Q345.4375 60.46354 346.5625 60.46354Q347.67188 60.46354 348.32812 61.21354L348.32812 57.916664L349.40625 57.916664L349.40625 66.916664L348.40625 66.916664L348.35938 66.229164Q347.70312 67.041664 346.54688 67.041664Q345.45312 67.041664 344.75 66.135414Q344.0625 65.229164 344.0625 63.77604L344.0625 63.697914ZM345.14062 63.822914Q345.14062 64.90104 345.57812 65.510414Q346.03125 66.11979 346.8125 66.11979Q347.84375 66.11979 348.32812 65.18229L348.32812 62.27604Q347.84375 61.385414 346.82812 61.385414Q346.03125 61.385414 345.57812 61.99479Q345.14062 62.604164 345.14062 63.822914ZM355.23438 66.291664Q354.60938 67.041664 353.375 67.041664Q352.35938 67.041664 351.82812 66.447914Q351.29688 65.854164 351.29688 64.697914L351.29688 60.572914L352.375 60.572914L352.375 64.666664Q352.375 66.11979 353.54688 66.11979Q354.79688 66.11979 355.20312 65.18229L355.20312 60.572914L356.29688 60.572914L356.29688 66.916664L355.26562 66.916664L355.23438 66.291664ZM362.01562 65.229164Q362.01562 64.791664 361.67188 64.55729Q361.34375 64.30729 360.51562 64.135414Q359.70312 63.96354 359.21875 63.71354Q358.73438 63.46354 358.5 63.135414Q358.28125 62.791664 358.28125 62.322914Q358.28125 61.541664 358.9375 61.010414Q359.59375 60.46354 360.625 60.46354Q361.70312 60.46354 362.35938 61.02604Q363.03125 61.572914 363.03125 62.43229L361.95312 62.43229Q361.95312 61.99479 361.5625 61.68229Q361.1875 61.354164 360.625 61.354164Q360.03125 61.354164 359.6875 61.61979Q359.35938 61.86979 359.35938 62.27604Q359.35938 62.666664 359.67188 62.86979Q359.98438 63.072914 360.79688 63.260414Q361.60938 63.43229 362.10938 63.68229Q362.60938 63.93229 362.84375 64.291664Q363.09375 64.65104 363.09375 65.15104Q363.09375 66.010414 362.40625 66.52604Q361.73438 67.041664 360.65625 67.041664Q359.89062 67.041664 359.29688 66.77604Q358.71875 66.49479 358.39062 66.010414Q358.0625 65.52604 358.0625 64.96354L359.14062 64.96354Q359.17188 65.510414 359.57812 65.83854Q359.98438 66.15104 360.65625 66.15104Q361.26562 66.15104 361.64062 65.90104Q362.01562 65.65104 362.01562 65.229164ZM365.79688 59.041664L365.79688 60.572914L366.96875 60.572914L366.96875 61.416664L365.79688 61.416664L365.79688 65.33854Q365.79688 65.729164 365.95312 65.916664Q366.10938 66.104164 366.48438 66.104164Q366.67188 66.104164 367.0 66.041664L367.0 66.916664Q366.57812 67.041664 366.17188 67.041664Q365.45312 67.041664 365.07812 66.604164Q364.70312 66.15104 364.70312 65.33854L364.70312 61.416664L363.54688 61.416664L363.54688 60.572914L364.70312 60.572914L364.70312 59.041664L365.79688 59.041664ZM371.39062 61.541664Q371.14062 61.510414 370.85938 61.510414Q369.78125 61.510414 369.40625 62.416664L369.40625 66.916664L368.32812 66.916664L368.32812 60.572914L369.375 60.572914L369.39062 61.30729Q369.92188 60.46354 370.90625 60.46354Q371.21875 60.46354 371.39062 60.541664L371.39062 61.541664ZM374.39062 65.322914L375.875 60.572914L377.03125 60.572914L374.48438 67.90104Q373.89062 69.479164 372.60938 69.479164L372.39062 69.46354L372.0 69.385414L372.0 68.510414L372.28125 68.52604Q372.84375 68.52604 373.14062 68.30729Q373.45312 68.08854 373.65625 67.49479L373.89062 66.83854L371.625 60.572914L372.8125 60.572914L374.39062 65.322914Z" fill-rule="nonzero"/><path fill="#757575" d="M28.05 33.83125L22.096874 33.83125L20.753124 37.55L18.83125 37.55L24.253124 23.33125L25.89375 23.33125L31.33125 37.55L29.409374 37.55L28.05 33.83125ZM22.659374 32.3L27.503124 32.3L25.08125 25.64375L22.659374 32.3ZM35.3625 24.425L35.3625 26.9875L37.346874 26.9875L37.346874 28.378124L35.3625 28.378124L35.3625 34.925Q35.3625 35.565624 35.628124 35.89375Q35.89375 36.20625 36.534374 36.20625Q36.846874 36.20625 37.39375 36.08125L37.39375 37.55Q36.675 37.753124 36.003124 37.753124Q34.8 37.753124 34.175 37.01875Q33.565624 36.284374 33.565624 34.925L33.565624 28.378124L31.64375 28.378124L31.64375 26.9875L33.565624 26.9875L33.565624 24.425L35.3625 24.425ZM42.3625 24.425L42.3625 26.9875L44.346874 26.9875L44.346874 28.378124L42.3625 28.378124L42.3625 34.925Q42.3625 35.565624 42.628124 35.89375Q42.89375 36.20625 43.534374 36.20625Q43.846874 36.20625 44.39375 36.08125L44.39375 37.55Q43.675 37.753124 43.003124 37.753124Q41.8 37.753124 41.175 37.01875Q40.565624 36.284374 40.565624 34.925L40.565624 28.378124L38.64375 28.378124L38.64375 26.9875L40.565624 26.9875L40.565624 24.425L42.3625 24.425ZM51.3 37.753124Q49.159374 37.753124 47.8 36.346874Q46.45625 34.925 46.45625 32.565624L46.45625 32.221874Q46.45625 30.659374 47.05 29.425Q47.659374 28.190624 48.7375 27.4875Q49.815624 26.784374 51.08125 26.784374Q53.14375 26.784374 54.284374 28.14375Q55.425 29.503124 55.425 32.034374L55.425 32.784374L48.26875 32.784374Q48.3 34.346874 49.175 35.315624Q50.05 36.26875 51.39375 36.26875Q52.3625 36.26875 53.01875 35.878124Q53.690624 35.4875 54.190624 34.846874L55.284374 35.70625Q53.95625 37.753124 51.3 37.753124ZM51.08125 28.26875Q49.9875 28.26875 49.2375 29.065624Q48.503124 29.8625 48.33125 31.3L53.6125 31.3L53.6125 31.159374Q53.534374 29.784374 52.8625 29.034374Q52.20625 28.26875 51.08125 28.26875ZM59.628124 26.9875L59.690624 28.315624Q60.89375 26.784374 62.846874 26.784374Q66.20625 26.784374 66.22188 30.565624L66.22188 37.55L64.425 37.55L64.425 30.55Q64.40938 29.409374 63.89375 28.8625Q63.39375 28.315624 62.3 28.315624Q61.425 28.315624 60.753124 28.784374Q60.096874 29.253124 59.721874 30.01875L59.721874 37.55L57.925 37.55L57.925 26.9875L59.628124 26.9875ZM68.47188 32.175Q68.47188 29.753124 69.62813 28.26875Q70.78438 26.784374 72.64375 26.784374Q74.50313 26.784374 75.58125 28.05L75.58125 22.55L77.39375 22.55L77.39375 37.55L75.7375 37.55L75.64375 36.409374Q74.56563 37.753124 72.62813 37.753124Q70.8 37.753124 69.62813 36.253124Q68.47188 34.7375 68.47188 32.315624L68.47188 32.175ZM70.28438 32.378124Q70.28438 34.175 71.01875 35.190624Q71.76875 36.20625 73.08125 36.20625Q74.8 36.20625 75.58125 34.675L75.58125 29.815624Q74.78438 28.315624 73.09688 28.315624Q71.76875 28.315624 71.01875 29.346874Q70.28438 30.378124 70.28438 32.378124ZM84.3 37.753124Q82.15938 37.753124 80.8 36.346874Q79.45625 34.925 79.45625 32.565624L79.45625 32.221874Q79.45625 30.659374 80.05 29.425Q80.65938 28.190624 81.7375 27.4875Q82.81563 26.784374 84.08125 26.784374Q86.14375 26.784374 87.28438 28.14375Q88.425 29.503124 88.425 32.034374L88.425 32.784374L81.26875 32.784374Q81.3 34.346874 82.175 35.315624Q83.05 36.26875 84.39375 36.26875Q85.3625 36.26875 86.01875 35.878124Q86.69063 35.4875 87.19063 34.846874L88.28438 35.70625Q86.95625 37.753124 84.3 37.753124ZM84.08125 28.26875Q82.9875 28.26875 82.2375 29.065624Q81.50313 29.8625 81.33125 31.3L86.6125 31.3L86.6125 31.159374Q86.53438 29.784374 85.8625 29.034374Q85.20625 28.26875 84.08125 28.26875ZM95.3 37.753124Q93.15938 37.753124 91.8 36.346874Q90.45625 34.925 90.45625 32.565624L90.45625 32.221874Q90.45625 30.659374 91.05 29.425Q91.65938 28.190624 92.7375 27.4875Q93.81563 26.784374 95.08125 26.784374Q97.14375 26.784374 98.28438 28.14375Q99.425 29.503124 99.425 32.034374L99.425 32.784374L92.26875 32.784374Q92.3 34.346874 93.175 35.315624Q94.05 36.26875 95.39375 36.26875Q96.3625 36.26875 97.01875 35.878124Q97.69063 35.4875 98.19063 34.846874L99.28438 35.70625Q97.95625 37.753124 95.3 37.753124ZM95.08125 28.26875Q93.9875 28.26875 93.2375 29.065624Q92.50313 29.8625 92.33125 31.3L97.6125 31.3L97.6125 31.159374Q97.53438 29.784374 96.8625 29.034374Q96.20625 28.26875 95.08125 28.26875ZM108.06563 34.753124Q108.06563 34.01875 107.51875 33.6125Q106.97188 33.20625 105.59688 32.909374Q104.22188 32.6125 103.40938 32.20625Q102.6125 31.8 102.22188 31.2375Q101.84688 30.659374 101.84688 29.878124Q101.84688 28.58125 102.94063 27.690624Q104.03438 26.784374 105.75313 26.784374Q107.55 26.784374 108.65938 27.721874Q109.78438 28.64375 109.78438 30.08125L107.95625 30.08125Q107.95625 29.346874 107.33125 28.815624Q106.70625 28.26875 105.75313 28.26875Q104.75313 28.26875 104.19063 28.70625Q103.64375 29.128124 103.64375 29.83125Q103.64375 30.471874 104.15938 30.815624Q104.675 31.14375 106.03438 31.45625Q107.39375 31.753124 108.22188 32.175Q109.06563 32.58125 109.47188 33.175Q109.87813 33.76875 109.87813 34.6125Q109.87813 36.034374 108.7375 36.89375Q107.6125 37.753124 105.8 37.753124Q104.53438 37.753124 103.55 37.3Q102.58125 36.846874 102.01875 36.05Q101.47188 35.2375 101.47188 34.3L103.28438 34.3Q103.33125 35.20625 104.00313 35.7375Q104.69063 36.26875 105.8 36.26875Q106.83125 36.26875 107.44063 35.8625Q108.06563 35.440624 108.06563 34.753124Z" fill-rule="nonzero"/></svg>
